<?xml version="1.0" encoding="UTF-8" standalone="no"?>
<!-- Created with Inkscape (http://www.inkscape.org/) -->

<svg
   width="210mm"
   height="297mm"
   viewBox="0 0 210 297"
   version="1.1"
   id="svg5"
   inkscape:version="1.1.1 (3bf5ae0d25, 2021-09-20)"
   sodipodi:docname="시발.svg"
   xmlns:inkscape="http://www.inkscape.org/namespaces/inkscape"
   xmlns:sodipodi="http://sodipodi.sourceforge.net/DTD/sodipodi-0.dtd"
   xmlns="http://www.w3.org/2000/svg"
   xmlns:svg="http://www.w3.org/2000/svg">
  <sodipodi:namedview
     id="namedview7"
     pagecolor="#505050"
     bordercolor="#ffffff"
     borderopacity="1"
     inkscape:pageshadow="0"
     inkscape:pageopacity="0"
     inkscape:pagecheckerboard="1"
     inkscape:document-units="mm"
     showgrid="false"
     inkscape:zoom="1.0381217"
     inkscape:cx="534.57018"
     inkscape:cy="389.777"
     inkscape:window-width="1920"
     inkscape:window-height="1009"
     inkscape:window-x="-8"
     inkscape:window-y="-8"
     inkscape:window-maximized="1"
     inkscape:current-layer="svg5"
     showguides="false" />
  <defs
     id="defs2" />
  <g
     inkscape:label="레이어 1"
     inkscape:groupmode="layer"
     id="layer1">
    <path
       style="fill:none;stroke:#000000;stroke-width:0.264583px;stroke-linecap:butt;stroke-linejoin:miter;stroke-opacity:1"
       d="m 88.301195,114.59834 c 0.132145,0.99914 2.337513,6.80067 2.566693,6.79424 2.821179,-0.0791 5.450647,0.39736 5.660952,0.0737 0.901164,-1.38688 2.916918,-2.98584 5.83524,-1.2606 2.40266,0.42164 1.52814,1.33083 2.478,2.9736 2.02271,0.90845 2.43643,-1.5426 6.80325,1.26153 1.75096,-0.21784 5.51863,2.79959 5.80337,2.6127 0.66761,-0.43818 -0.6856,-4.2034 0.52019,-5.89896 0.87278,-1.22729 2.27234,-1.22618 3.90609,-2.04658 2.11398,-1.06155 3.63607,-3.46135 3.60437,-5.13623 -0.0321,-1.69537 3.60377,-3.28072 3.19661,-4.9396 -1.0152,-1.90385 -1.49431,-4.19198 -5.54398,-3.14337 -0.60697,0.15141 1.18927,-2.0454 1.48907,-3.16428 -0.13651,-0.97425 0.69915,-1.91127 0.45054,-2.793381 -0.25829,-0.916424 -0.53292,-1.214847 -0.96934,-1.664758 -0.48619,-0.501223 0.77672,-3.111532 0.33857,-3.831905 -0.93135,-1.531252 -4.19739,-3.995484 -5.58676,-3.51426 -0.62505,0.216494 0.30876,1.454701 -0.0901,1.982402 -0.17182,0.227322 -0.60819,0.07015 -0.81099,0.270327 -0.52055,0.513833 -0.0468,2.356361 -0.72087,2.072513 -0.7486,-0.315211 -2.33556,-0.165892 -2.34284,-0.09011 -0.0683,0.711111 -0.0752,2.14247 -0.63077,2.793386 -0.32896,0.385421 -1.44552,0.153957 -2.16262,0.270327 -0.45354,0.0736 -0.89227,0.279939 -1.35164,0.270328 -1.26731,-0.02651 -2.46133,-1.194628 -3.69447,-0.901092 -1.57517,0.374954 -2.07655,3.217593 -3.69448,3.153823 -0.76401,-0.0301 -1.37591,-2.13814 -2.06799,-1.813118 -1.897423,0.891088 -4.825518,-0.227297 -6.492388,0.01093 -0.822411,0.117539 0.967777,1.800048 0.540655,2.512608 -0.689404,1.15012 -3.016022,0.0514 -3.874696,1.0813 -0.369222,0.44285 0.01395,1.1721 -0.157691,1.72254 -0.14113,0.45259 -0.703694,0.76494 -0.698347,1.239 0.0063,0.55887 0.802375,0.88542 0.856038,1.44175 0.104902,1.08752 -1.148892,2.68075 -1.103839,3.08624 0.04506,0.40549 1.588861,1.99426 0.630764,2.27526 -0.95383,0.27975 -3.002169,-0.0863 -2.883492,0.81098 z"
       id="path54"
       sodipodi:nodetypes="ssscccsssscccsssssssssassssssssssssss" />
    <path
       style="fill:none;stroke:#000000;stroke-width:0.264583px;stroke-linecap:butt;stroke-linejoin:miter;stroke-opacity:1"
       d="m 88.25659,114.15342 c 0,0 -3.560016,0.3346 -5.043593,-0.47172 -0.707271,-0.3844 -0.81002,-1.47503 -1.496578,-1.89531 -3.849862,-2.35669 -9.102621,-0.93433 -13.281954,-2.63979 -0.999034,-0.40768 -2.127099,-0.86241 -2.709976,-1.77044 -0.80904,-1.26036 0.278428,-3.28239 -0.668033,-4.44311 -1.277733,-1.56698 -5.479915,-0.0802 -5.693966,-2.09071 -0.10907,-1.024463 2.763094,-0.63318 2.612025,-1.652304 -0.738492,-4.981913 -1.178118,-9.39137 0.66335,-13.045098 0.401336,-0.796306 1.052123,3.568666 9.654569,1.887209 1.1808,-0.230802 1.276934,-2.132555 1.392108,-3.330175 0.09053,-0.941327 -0.968588,-1.918052 -0.575308,-2.778065 0.338018,-0.739168 1.627732,-0.548365 2.129515,-1.18777 0.601228,-0.766124 -0.01684,-2.25088 0.775777,-2.81673 0.540031,-0.38553 1.375175,0.380815 1.986748,0.123433 0.656452,-0.27627 0.694085,-1.497084 1.396048,-1.617509 1.421605,-0.243884 2.320983,2.01527 3.757409,2.146123 1.083169,0.09867 2.255637,-1.790243 3.079141,-1.079727 1.760626,1.519062 3.463065,4.429265 3.381801,4.771106 -0.346623,1.458081 0.904159,3.123955 1.755344,4.637363 0.596515,1.060605 1.390513,2.088391 1.58157,3.290144 0.102729,0.646169 -0.501915,1.337728 -0.259831,1.945579 0.153691,0.385904 0.776952,0.415242 0.968957,0.783585 0.333504,0.639794 -0.112477,1.487858 0.15194,2.159159 0.408404,1.036853 1.906396,1.502168 2.10267,2.599134 0.07616,0.42565 -0.415563,1.228865 -0.415563,1.228865"
       id="path7670"
       sodipodi:nodetypes="cssssssssssssssssssssssssc" />
    <path
       style="fill:none;stroke:#000000;stroke-width:0.264583px;stroke-linecap:butt;stroke-linejoin:miter;stroke-opacity:1"
       d="m 59.431038,101.02091 c -0.243582,-0.66655 -4.067029,3.08183 -5.297008,5.34664 -0.38531,0.70949 0.313683,1.6758 0.0056,2.42207 -0.200662,0.48606 -0.637411,0.89646 -1.115448,1.11555 -0.212604,0.0974 -0.498236,-0.0669 -0.699686,0.0519 -0.768868,0.45341 -0.677912,1.82138 -1.465696,2.24107 -0.909898,0.48474 -2.134834,-0.42042 -3.092646,-0.039 -0.803032,0.31979 -1.540099,1.00343 -1.860598,1.80618 -0.330783,0.82851 0.676791,1.98652 0.1084,2.6741 -0.39528,0.47817 -1.236383,0.41633 -1.840653,0.27578 -1.361245,-0.31661 -2.744059,-1.17922 -3.446698,-2.38733 -0.26743,-0.45982 0.147142,-1.14248 -0.141105,-1.58954 -0.456937,-0.70869 -1.796513,-0.50482 -2.202852,-1.24369 -0.51337,-0.93349 0.619694,-2.22904 0.163629,-3.19183 -0.501991,-1.05974 -2.344109,-1.02013 -2.832523,-2.08619 -0.462576,-1.00967 0.774888,-2.34029 0.255518,-3.32195 -0.285331,-0.5393 -1.989287,-0.4513 -1.587764,-0.9107 1.985902,-2.27216 3.163654,-5.949388 3.997568,-8.432858 0.549955,-1.637814 4.407292,-0.300266 4.787641,-1.985561 0.144287,-0.639323 -1.29135,-0.805362 -1.316651,-1.460277 -0.09265,-2.398166 2.127642,-4.914861 4.394401,-5.703269 0.854209,-0.297105 1.73858,0.796414 2.632284,0.657712 0.775764,-0.120397 1.219774,-1.262979 2.004382,-1.236607 2.691074,0.09045 5.652638,-0.134357 8.318027,-0.01495 1.375471,0.06162 3.595899,2.032479 3.595899,2.032479"
       id="path13505"
       sodipodi:nodetypes="csssssssssssssssssssssssc" />
    <path
       style="fill:none;stroke:#000000;stroke-width:0.264583px;stroke-linecap:butt;stroke-linejoin:miter;stroke-opacity:1"
       d="m 34.356016,102.40782 c 0,0 -2.123011,-1.47669 -2.813437,-2.532947 -0.788598,-1.206444 -0.250355,-3.185067 -1.360445,-4.104357 -1.019233,-0.84405 -2.733641,0.02971 -3.93521,-0.524811 -1.384489,-0.638933 -1.880709,-2.956541 -3.402145,-3.057909 -1.510773,-0.100658 -2.470885,1.753263 -3.751271,2.561458 -1.502905,0.948652 -3.602349,1.21647 -4.608362,2.681599 -0.385509,0.561444 0.192777,1.574449 -0.324728,2.017197 -0.661878,0.56627 -2.922186,0.59995 -3.481721,-0.414843 0,0 1.70197,-5.321642 -3.4141742,-5.560885 -2.8922243,-0.135247 5.7119182,-4.08552 7.1810672,-5.219328 1.041496,-0.803769 -0.983042,-8.885495 0.522673,-10.691899 0.803197,-0.963594 2.211085,-1.120775 3.158895,-1.942538 2.136235,-1.852143 1.839656,-4.785735 3.793005,-6.829839 1.011618,-1.058619 2.199134,-1.125434 3.060759,-1.872397 2.135122,-1.850989 2.914766,5.759853 4.907229,7.444972 3.398821,0.427898 4.52321,1.19051 6.165402,2.723859 0.899077,0.839487 0.842658,2.402142 1.718895,3.265442 0.774617,0.76318 2.590362,-0.535514 3.88722,0.114477 2.466215,1.236079 4.55384,4.169701 4.55384,4.169701"
       id="path15991"
       sodipodi:nodetypes="csssssssssssssscsssc" />
    <path
       style="fill:none;stroke:#000000;stroke-width:0.264583px;stroke-linecap:butt;stroke-linejoin:miter;stroke-opacity:1"
       d="m 22.229503,68.461162 c 0,0 -2.209025,-0.747261 -2.566822,-1.711344 -0.485898,-1.309251 9.54e-4,-3.556556 1.125622,-4.03548 2.139611,-0.911124 5.183406,-2.715182 5.448794,-2.335734 1.811962,2.590719 2.371745,3.556848 4.112871,4.69649 0.953865,0.624345 2.130378,1.192112 3.259586,1.035417 0.987823,-0.137075 2.019479,-0.772482 2.497088,-1.647966 0.254491,-0.466496 -0.340636,-1.202074 0.01812,-1.594093 0.301881,-0.329871 1.041446,-0.471313 1.334773,-0.133813 1.812043,2.084918 2.927885,4.103863 5.118256,5.112316 0.543279,0.250127 1.22027,0.325725 1.788808,0.140036 1.026339,-0.33521 2.556792,-2.685176 2.457458,-2.110102 -0.560441,3.244568 3.936344,6.039696 4.46424,8.987478 0.234409,1.308945 -2.383257,2.209834 -2.066653,3.538602 0.237748,0.997815 2.096852,0.768931 2.583426,1.671928 0.625316,1.160478 -0.03138,3.954562 -0.03138,3.954562"
       id="path19013"
       sodipodi:nodetypes="cassaaaasaassaac" />
    <path
       style="fill:none;stroke:#000000;stroke-width:0.264583px;stroke-linecap:butt;stroke-linejoin:miter;stroke-opacity:1"
       d="m 46.824055,65.876889 c 0,0 0.397153,-1.382536 0.903418,-1.842529 0.507056,-0.460712 1.757635,-0.05961 1.923428,-0.724348 0.200134,-0.802426 0.598401,-1.467425 0.672295,-2.122754 0.04819,-0.427348 -0.680012,-0.816407 -0.480467,-1.197367 0.377315,-0.72035 1.293682,-1.22881 1.931552,-2.110987 1.090884,-1.508698 2.879067,1.783096 4.479395,2.278103 0.70886,0.219262 1.625158,0.747421 2.207355,0.287415 0.252185,-0.199256 -0.221363,-0.958579 0.100041,-0.959007 1.070078,-0.0014 2.837073,0.205919 3.912479,0.844175 1.130551,0.670984 2.219847,2.186899 1.689785,3.361888 -0.359731,0.797416 -0.04927,1.929916 0.5515,2.565805 1.149593,1.216795 2.000034,-0.01851 2.676808,-0.570613 0.809304,-0.660214 2.537802,0.761411 2.61778,1.821433 0.04074,0.539954 -1.192478,0.576051 -1.179137,1.117375 0.03262,1.323646 0.7021,2.927497 1.634297,3.650319 1.620622,1.256623 6.198356,-0.06718 6.00253,2.601037 -0.06441,0.877573 -0.349182,2.999016 -0.328324,3.005312"
       id="path19015"
       sodipodi:nodetypes="cassssaasssssasssc" />
    <path
       style="fill:none;stroke:#000000;stroke-width:0.264583px;stroke-linecap:butt;stroke-linejoin:miter;stroke-opacity:1"
       d="m 20.835415,62.618685 c 0,0 -3.395698,-1.592279 -4.079788,-3.173573 -0.835033,-1.930204 1.978463,-4.938647 0.586463,-6.28194 -2.434518,-2.349331 -5.490247,-4.435948 -4.457018,-7.692623 0.552875,-1.742631 6.894415,-8.557881 8.522991,-9.303598 1.40651,-0.644034 -0.515507,-3.127804 -0.177789,-4.637439 0.337558,-1.508922 1.390579,-2.76292 2.135811,-4.117697 1.303713,-2.370054 -1.005549,-3.953972 -0.66098,-4.984194 0.402198,-1.202526 1.910081,-1.458075 3.170465,-1.826047 0.934569,-0.272849 2.223421,-0.390061 3.023224,0.116309 3.425991,2.169056 0.385477,9.253794 3.634915,10.465607 2.949317,1.099889 6.374844,-1.187775 9.611926,-1.965317 2.245941,-0.539471 3.688489,-9.44324 10.731239,-5.377832 1.787522,1.031842 -3.146755,4.753626 -0.27955,6.76896 3.463898,2.434745 5.115378,5.95814 8.548791,5.7726 0.80566,-0.04354 1.662777,-0.777637 1.848342,-1.562843 0.220965,-0.935 -1.647866,-1.836928 -1.135036,-2.649366 0.709496,-1.124 3.001581,0.735776 3.984411,-0.159102 1.513433,-1.377997 -1.167552,-6.638677 0.817444,-6.08572 3.457468,0.963141 2.961985,-0.602276 3.545576,-1.318441 2.768301,-3.397179 4.087609,8.901574 7.881738,8.450999 4.187824,-0.497329 8.704385,0.553871 11.611784,3.341145 1.591331,1.525582 0.531977,5.161543 2.095122,6.272804 1.470088,1.045105 4.099753,6.839952 3.139407,8.113451 -0.737072,0.977419 -3.335222,3.480695 -4.834722,5.0964 -0.411196,0.443062 -1.043731,-0.831034 -1.644502,-0.764252 -0.571746,0.06355 -0.811924,0.902642 -1.367121,1.053269 -1.078288,0.292544 -2.552941,-1.2308 -3.324981,-0.423185 -0.655295,0.685491 0.897774,1.948963 0.48588,2.80316 -0.35694,0.740232 -0.310566,1.322563 -0.09318,2.256322 0.176164,0.756693 -0.530708,1.609129 -1.204947,1.995159 -1.212245,0.694062 -2.990147,-0.662458 -4.190299,0.05231 -0.390574,0.232612 -1.237295,0.253593 -0.373747,1.114986 1.568588,1.564674 -1.836153,2.334674 0.973047,5.651359 0.913041,1.077983 -1.460517,-0.101756 -0.0075,3.67367 0.172362,0.447855 -0.452909,0.8854 -0.45673,1.365262 -0.0048,0.601319 0.545018,1.719715 0.545018,1.719715"
       id="path19017"
       sodipodi:nodetypes="casssassssssssaaaasssasssaaassassssac" />
    <path
       style="fill:none;stroke:#000000;stroke-width:0.264583px;stroke-linecap:butt;stroke-linejoin:miter;stroke-opacity:1"
       d="m 58.534558,35.664932 c 0,0 -0.697644,2.307615 0.08961,2.366699 2.078624,0.156003 6.564028,2.650798 7.023362,4.365053 1.128465,4.211491 2.122351,2.594633 2.752471,4.121889 0.423789,1.02716 0.02272,2.348536 0.642143,3.271018 0.606268,0.902892 2.209448,0.836156 2.725518,1.793469 0.249529,0.462877 -0.204342,1.093061 7.4e-5,1.577554 0.398414,0.944295 1.785419,1.209296 2.202374,2.145552 0.281065,0.631122 0.286292,1.411096 0.08181,2.07102 -0.121833,0.39319 -0.75241,0.578811 -0.737904,0.990188 0.01091,0.309416 0.382016,0.490171 0.606091,0.703823 1.482132,1.413186 4.840931,3.782814 4.840931,3.782814"
       id="path19019"
       sodipodi:nodetypes="cssaaaaaaaac" />
    <path
       style="fill:none;stroke:#000000;stroke-width:0.264583px;stroke-linecap:butt;stroke-linejoin:miter;stroke-opacity:1"
       d="m 94.960736,50.725347 c 0,0 2.342033,4.08767 4.294073,5.205116 1.088141,0.622905 2.779541,-0.240967 3.714111,0.594881 3.18753,2.850823 -0.48578,10.462964 2.70653,12.161184 1.96982,1.047891 3.1574,-3.230401 3.42826,-2.711569 1.5539,2.976454 4.17207,1.838553 5.16635,2.338121 0.92682,0.465673 -0.0822,2.31692 0.6607,3.040753 0.7788,0.758802 3.05745,-0.467877 3.20459,0.609462 0.38315,2.805339 1.80931,4.096192 2.35955,5.605592 0.23919,0.656122 4.50264,1.911888 4.05541,2.497402 -0.64009,0.837996 -0.0888,2.147828 0.93188,3.606678 0.46352,0.662499 -1.77581,1.859505 -1.88875,3.049971 -0.085,0.896067 1.08466,1.630068 0.96458,2.522112 -0.0829,0.615861 -0.91384,0.911138 -1.10268,1.503164 -0.25603,0.802638 0.0388,2.527151 0.0388,2.527151"
       id="path19038"
       sodipodi:nodetypes="cassssassssaaac" />
    <path
       style="fill:none;stroke:#000000;stroke-width:0.264583px;stroke-linecap:butt;stroke-linejoin:miter;stroke-opacity:1"
       d="m 109.10371,65.974959 c 0,0 -0.52955,-1.702037 0.0727,-1.914369 1.26147,-0.444748 4.77385,1.398963 5.98328,-0.298719 0.41572,-0.583543 -0.94088,-1.519648 -0.50598,-2.089037 0.39965,-0.523237 1.36495,0.192616 1.97441,-0.0565 0.41798,-0.170847 0.56907,-0.766802 0.99353,-0.920835 1.00144,-0.363412 2.18485,0.511395 3.19183,0.163629 0.72744,-0.251226 1.01981,-1.248408 1.74142,-1.515925 1.98146,-0.734574 3.24539,-2.599216 4.62563,-3.192039 1.1354,-0.487664 2.2742,1.896281 3.41935,1.431973 1.40906,-0.571313 0.34455,-3.729801 1.79225,-4.19458 0.81894,-0.262919 1.42881,1.70855 2.20559,1.339223 1.44028,-0.684794 3.54865,-2.114132 5.71274,-1.63024 2.11996,0.474023 -1.83726,-3.978409 -1.87094,-5.23712 -0.0204,-0.764202 2.15589,-0.255505 2.25447,-1.013595 0.33549,-2.579791 -0.26886,-4.03172 0.84175,-5.8311 0.44968,-0.728566 1.11316,-2.49131 1.73048,-1.89807 4.10857,3.948288 5.99459,1.128551 8.72043,-1.93682 1.24024,-1.394727 5.44373,1.846966 8.1959,2.791302 1.51151,0.518634 0.96601,3.153513 2.03649,4.339981 0.65909,0.730507 2.17455,0.603546 2.52951,1.521183 0.20622,0.533123 0.22626,0.915504 0.026,1.569292 -0.77357,2.524976 -6.0572,-4.913672 -7.25975,-2.637137 -0.72402,1.370631 -0.50922,3.49258 -0.68763,4.927883 -0.0839,0.674789 -0.89507,1.158816 -1.55582,1.319384 -0.98113,0.238424 -2.10085,-1.22415 -2.95164,-0.680445 -0.46012,0.294043 0.0941,1.267218 -0.33658,1.603206 -1.57431,1.228191 -6.50679,-1.157836 -5.73943,3.701048 0.18084,1.145046 -1.78367,2.246757 -0.94779,3.183339 0.55803,0.62526 1.69721,-0.770232 2.47301,-0.453232 1.88674,0.770939 3.4066,2.96373 3.52143,4.998657 0.0568,1.007415 -1.89607,1.748115 -1.45385,2.655067 0.50736,1.040563 1.92844,2.404358 1.05743,3.539342 -0.67201,0.875673 -2.50521,-0.102644 -3.23,0.729866 -0.74387,0.854415 -0.89161,3.289681 -0.28554,3.386548 1.86855,0.298642 3.07292,3.252021 2.79349,4.063344 -0.24628,0.715075 -0.98695,1.449897 -1.74324,1.452234 -1.09889,0.0034 -1.44866,-2.034316 -2.54591,-2.094399 -1.09479,-0.05995 -1.69007,2.068092 -2.75318,1.799849 -1.67515,-0.422672 -2.44975,-2.633862 -2.47337,-4.554719 -0.0216,-1.751902 -2.76826,-3.784198 -4.43546,-3.886329 -1.72845,-0.105883 -2.00911,0.649087 -2.59781,1.44642 -0.85674,1.160364 0.39554,3.596187 -0.89876,4.232754 -0.773,0.380179 -1.48489,-0.950796 -2.32994,-1.118034 -0.66087,-0.130789 -1.45709,-0.258987 -2.01783,0.114421 -0.81154,0.540428 -1.02018,1.690621 -1.27878,2.630723 -0.17105,0.62183 0.53452,1.819518 -0.16313,1.927894 -0.6619,0.102824 -2.39632,0.257155 -2.3844,0.376016"
       id="path19040"
       sodipodi:nodetypes="cssaaaassaassssssssassssaasssaassassaaassaaaaasc" />
    <path
       style="fill:none;stroke:#000000;stroke-width:0.264583px;stroke-linecap:butt;stroke-linejoin:miter;stroke-opacity:1"
       d="m 164.74855,45.833299 c 0,0 3.8356,-0.0891 5.73774,2.258026 3.3005,-0.01951 3.67856,1.00532 4.08907,2.56018 0.30828,1.167651 0.2568,4.518398 0.2568,4.518398 -2.58226,2.948601 -3.72749,4.480787 -4.18243,5.831567 -0.45494,1.35078 -0.2196,2.520155 -0.0407,4.743132 0.1678,2.085051 -0.94957,4.809993 -2.9004,5.564897 -0.32,0.12383 -0.85379,-0.678953 -0.9663,-0.354804 -0.30147,0.868527 -1.60847,1.296647 -1.11522,2.292606 1.32183,2.668995 -0.15862,3.14335 0.64995,4.391178 0.62005,0.956897 -0.28617,1.676331 -0.58312,2.631787 -0.29696,0.955455 -0.88797,2.085989 -1.63333,2.647673 -0.70372,0.530304 1.16297,0.978415 1.09461,1.854114 -0.0684,0.8757 -1.10701,1.550541 -1.22796,2.419371 -0.12095,0.86883 -0.0204,1.230401 -0.22696,2.089593 -0.20657,0.859191 0.0782,1.76496 -0.24707,2.611745 -0.35104,0.913972 -2.0319,0.519659 -2.64038,1.286679 -0.4226,0.532707 0.0574,1.539724 -0.45302,1.988995 -0.70311,0.618881 -1.90324,0.551818 -2.79693,0.271274 -1.80067,-0.565264 -2.98963,0.506181 -4.31204,-3.6693 -1.28056,-4.043323 -2.83187,-7.012255 -3.07903,-14.030949"
       id="path19042"
       sodipodi:nodetypes="ccssssasssssssssaaasc" />
    <path
       style="fill:none;stroke:#000000;stroke-width:0.264583px;stroke-linecap:butt;stroke-linejoin:miter;stroke-opacity:1"
       d="m 174.57536,50.651505 c 0,0 4.94241,-0.522603 5.96335,1.231683 0.51022,0.87671 -1.1157,1.896739 -0.93703,2.895248 0.13764,0.769229 1.1711,1.111934 1.45052,1.841718 0.60379,1.57699 -0.45475,3.557605 0.32494,5.055447 0.49097,0.943173 1.96567,1.068671 2.49023,1.993586 1.08131,1.906624 -0.38908,4.736461 0.89215,6.514912 0.47761,0.662954 1.77347,0.386506 2.19829,1.084461 0.92864,1.525698 -1.82919,5.810904 -0.10165,5.357315 1.50534,-0.395249 6.64622,2.734634 8.4966,5.111247 0.80707,1.036592 -2.22309,2.001172 -2.13622,3.312025 0.11111,1.676612 2.93592,2.191287 3.26739,3.838558 0.31862,1.583425 -1.6416,2.930219 -1.46916,4.617395 0.13426,1.313734 2.10563,0.42755 2.96429,1.504234 0.85866,1.076684 -0.006,4.46459 0.93028,5.396026 3.71247,3.69384 -0.11201,3.04247 -0.15073,4.56421 -0.0698,2.7419 2.12978,6.69762 -0.14701,8.22704 -1.09038,0.73246 -2.36244,-1.49482 -3.67412,-1.42468 -1.22369,0.0654 -2.0459,1.79741 -3.26635,1.68705 -2.40509,-0.21748 -3.43546,-3.6911 -5.73603,-4.42534 -1.90205,-0.60705 -4.7079,1.76965 -5.98511,0.23503 -0.60303,-0.72457 1.53156,-2.51024 0.62222,-2.75875 -1.15728,-0.31626 -2.95123,-1.66376 -3.63412,-2.25449 -0.47759,-0.41313 -0.17362,1.32322 -0.58587,1.80157 -0.62656,0.72702 -1.77122,1.80674 -2.57669,1.28486 -1.48667,-0.96325 -3.32268,-3.11694 -4.83524,-4.1324 -0.3682,-0.24719 -1.84369,-1.74874 -1.67973,-2.75927 0.39579,-2.439262 -2.22303,-2.716387 -3.11015,-4.24286 -0.73202,-1.25958 -0.69716,-4.314568 -0.69716,-4.314568"
       id="path19044"
       sodipodi:nodetypes="caaaaaaassaasssaaaaaassassssc" />
    <path
       style="fill:none;stroke:#000000;stroke-width:0.264583px;stroke-linecap:butt;stroke-linejoin:miter;stroke-opacity:1"
       d="m 128.67596,109.03214 c 0.4247,-0.81204 3.82861,0.62642 4.81257,2.71356 0.37,0.78484 1.58564,0.98563 2.4476,0.8861 1.80306,-0.20819 2.55118,-2.42797 3.84857,-3.61601 0.7382,-0.67597 1.96034,1.17656 2.8916,0.80965 1.34284,-0.52907 1.03205,-2.9276 2.25267,-3.69781 1.86468,-1.1766 2.35465,-3.75253 3.21156,-5.82878 0.36561,-0.88586 1.95533,1.39689 2.89707,1.00072 1.2958,-0.54511 0.51646,-3.246238 1.80318,-3.812432 0.90371,-0.397655 1.90164,1.211965 2.82974,0.87516 1.09097,-0.39591 1.89239,-2.922588 1.89239,-2.922588"
       id="path19046"
       sodipodi:nodetypes="csssassaaac" />
    <path
       style="fill:none;stroke:#000000;stroke-width:0.264583px;stroke-linecap:butt;stroke-linejoin:miter;stroke-opacity:1"
       d="m 117.44917,127.05682 c 0,0 1.82155,2.42969 1.71892,3.82319 -0.12495,1.69657 -2.51725,2.61298 -2.75209,4.29785 -0.23839,1.7103 1.53487,3.234 1.49415,4.96035 -0.0433,1.83466 -1.88477,3.35635 -1.83466,5.19084 0.0206,0.75557 0.21147,1.72467 0.87123,2.0935 0.40975,0.22906 0.97665,5.8e-4 1.39097,-0.2201 1.19039,-0.63404 1.57415,-2.3115 2.75478,-2.96352 0.6657,-0.36763 1.52339,-0.1745 2.2415,-0.42473 0.71037,-0.24753 1.26725,-1.22626 1.99828,-1.04879 1.48554,0.36063 1.2356,3.13288 2.63158,3.7559 1.50114,0.66995 3.26093,-0.42164 4.89605,-0.59085 6.52368,-0.67512 2.08114,4.38767 3.94794,4.07881 1.0801,-0.1787 0.31417,-2.8504 1.40242,-2.96989 2.54778,-0.27975 0.70463,-1.93787 1.50666,-2.47706 0.4777,-0.32116 1.74866,0.29979 1.70494,-0.27416 -0.11382,-1.49405 -3.01873,-3.86887 -2.51459,-5.96783 0.59159,-2.46304 5.09507,-2.46864 5.80944,-4.89892 2.75513,-9.37297 7.07798,-5.45551 7.22339,-9.04104 0.0894,-2.20424 2.24039,-4.62197 1.12045,-6.52259 -0.96287,-1.63406 -4.14355,-0.42973 -5.37227,-1.87454 -1.40623,-1.65354 -0.29732,-4.40857 -1.13007,-6.41311 -0.44904,-1.08089 -2.02033,-2.87193 -2.02033,-2.87193"
       id="path19048"
       sodipodi:nodetypes="caaaaaaaaaasasasassaaac" />
    <path
       style="fill:none;stroke:#000000;stroke-width:0.264583px;stroke-linecap:butt;stroke-linejoin:miter;stroke-opacity:1"
       d="m 152.9217,120.88165 c 0,0 1.1782,-0.11215 1.71524,0.0861 1.10132,0.40656 1.60855,2.14448 2.78849,2.15131 0.21709,10e-4 0.86374,-0.5112 1.03058,-0.65865 0.62988,-0.55668 4.80772,-0.97591 5.61927,-0.86131 4.92611,0.6956 4.84157,0.067 9.40498,2.61552 0.72318,0.40388 0.28593,1.87018 1.01149,2.26978 0.79466,0.43765 1.87965,-0.79413 2.69315,-0.39259 0.5391,0.2661 0.31153,1.37618 0.87892,1.57494 1.673,0.58607 3.15301,-2.10899 4.92301,-2.01142 0.74587,0.0411 1.22396,1.01351 1.96878,1.07049 1.87522,0.14346 4.0873,-0.47997 5.30904,-1.90979 0.76931,-0.90034 -0.34432,-2.87248 0.66637,-3.4897 1.07816,-0.65843 2.61203,1.80718 3.6364,1.06784 2.8728,-2.07344 0.37006,-10.62227 0.37006,-10.62227"
       id="path19050"
       sodipodi:nodetypes="cassssaaaaaaaac" />
    <path
       style="fill:none;stroke:#000000;stroke-width:0.264583px;stroke-linecap:butt;stroke-linejoin:miter;stroke-opacity:1"
       d="m 151.91051,124.92209 c 0,0 1.58871,3.30697 3.35352,5.35787 0.62054,0.72113 -0.0361,2.11611 0.44664,3.00711 0.48082,0.88747 2.40379,1.00859 2.26606,2.0085 -0.0899,0.65259 -1.39389,0.32721 -1.77825,0.86221 -1.01997,1.41971 -1.59083,3.72115 -0.66242,5.20236 0.969,1.54599 0.79455,-0.79396 5.18825,1.74459 1.79452,1.03682 3.29733,-2.47648 6.21499,-0.17786 0.54125,0.42641 1.23632,-0.88957 1.91593,-0.776 1.02733,0.17168 2.34246,1.0095 2.35743,2.05097 0.03,2.08814 0.29704,4.77764 0.0312,7.39108 -0.13229,1.30057 -1.23721,1.29453 -2.80627,2.73963 -0.69164,0.637 -1.61809,-1.21113 -2.55811,-1.18884 -0.68491,0.0162 -1.13773,0.89972 -1.82071,0.95357 -1.03738,0.0818 -2.0015,-0.58793 -2.95828,-0.9971 -1.15613,-0.49442 -2.2063,-1.20951 -3.34048,-1.75239 -0.95749,-0.45831 -1.93812,-1.66961 -2.92099,-1.2686 -1.27634,0.52075 -0.2298,3.46204 -1.55807,3.83073 -1.44189,0.40022 -2.13444,-2.35614 -3.59273,-2.69172 -1.54231,-0.35491 -3.09919,1.15026 -4.66185,0.89966 -0.81125,-0.1301 -1.3312,-1.19369 -2.15279,-1.20043 -0.70519,-0.006 -1.16593,0.90292 -1.86445,0.99989 -1.41067,0.19584 -3.26473,0.17975 -4.17298,-0.91726 -0.2107,-0.25449 -0.0284,-0.99079 -0.0284,-0.99079"
       id="path19052"
       sodipodi:nodetypes="csaaaassasssaaaaaaaaaaac" />
    <path
       style="fill:none;stroke:#000000;stroke-width:0.264583px;stroke-linecap:butt;stroke-linejoin:miter;stroke-opacity:1"
       d="m 184.95561,126.72582 c 0,0 2.25429,2.63702 3.81085,3.22637 2.25004,0.85191 5.33574,-1.34681 7.2161,0.15407 0.79316,0.63309 0.32335,2.02748 0.73809,2.9537 0.2622,0.58556 1.11657,0.951 1.08224,1.59166 -0.0541,1.0088 -1.16646,1.08061 -1.96219,2.30981 -0.36141,0.55828 -1.44122,-0.11462 -1.97515,0.28189 -0.62009,0.46049 -1.2228,1.36924 -0.97654,2.10131 0.39347,1.16969 2.60072,0.69643 3.27228,1.73181 0.53569,0.82589 -0.3095,2.10255 0.19702,2.94664 0.76942,1.28221 3.14993,1.02769 3.80889,2.37002 0.71417,1.4548 0.66545,3.70316 -0.4926,4.83691 -1.24651,1.22036 -3.68694,1.25855 -5.21646,0.41973 -2.38224,-1.30647 -3.958,-2.54154 -6.27182,-4.17007 -0.60021,-0.42244 0.0992,-1.83749 -0.57914,-2.12439 -3.34097,-1.41305 -6.65117,-0.86862 -9.97877,-0.61588 -1.15074,0.0874 -1.69132,1.68146 -2.78056,2.06279 -1.07022,0.37467 -3.39962,0.11982 -3.39962,0.11982"
       id="path19054"
       sodipodi:nodetypes="caaaasaaaaaassssac" />
    <path
       style="fill:none;stroke:#000000;stroke-width:0.264583px;stroke-linecap:butt;stroke-linejoin:miter;stroke-opacity:1"
       d="m 36.600156,31.134724 c 0.467101,0.178192 1.95775,-0.09553 2.71635,0.418066 1.086808,0.73581 0.895454,2.684055 2.001375,3.390812 0.593325,0.379174 1.489013,-0.136352 2.101916,0.210286 2.00103,1.131718 3.295546,3.38317 4.124613,5.52736 0.437015,1.130238 -0.108851,2.497367 0.351451,3.618323 0.468955,1.142028 2.169423,1.650882 2.335909,2.874168 0.156732,1.151622 -0.718605,2.250623 -1.395974,3.195064 -0.42983,0.599303 -2.123182,0.935168 -1.636352,1.489167 2.158551,2.456369 1.622067,3.184157 2.454351,4.256773 0.576694,0.743221 2.393019,1.496009 2.393019,1.496009"
       id="path25207"
       sodipodi:nodetypes="caaaaaaassc" />
  </g>
  <path
     style="fill:#ffffff;stroke-width:0.34057"
     d="m 161.63984,255.92975 c -4.34023,-1.71879 -7.72831,-4.79183 -14.58518,-13.22901 -2.81521,-3.46404 -5.40865,-6.45495 -5.7632,-6.64645 -1.60609,-0.86751 -4.85847,0.0548 -5.55883,1.57638 -0.26625,0.57847 -0.27335,1.42113 -0.0246,2.92599 0.27048,1.6366 0.24862,2.31075 -0.0968,2.98744 -0.78131,1.53034 -2.98642,3.41501 -5.27371,4.50734 -1.92649,0.92003 -2.57565,1.05652 -4.9423,1.03918 -3.43089,-0.0251 -6.10907,-1.06002 -10.77379,-4.16311 -4.04734,-2.69239 -6.90575,-5.75767 -11.59219,-12.43115 -2.78829,-3.97053 -3.65364,-4.97322 -4.367282,-5.06045 -1.147409,-0.14025 -4.508269,1.25602 -12.879751,5.3509 l -6.752838,3.30312 -3.360114,-1.86362 c -4.277389,-2.37237 -8.951784,-5.90326 -10.472086,-7.91029 -2.381937,-3.14451 -2.349068,-5.15174 0.207934,-12.69755 0.919511,-2.71351 1.841493,-5.83207 2.048849,-6.93014 0.734327,-3.88867 0.215396,-4.80765 -5.909624,-10.46546 -10.176749,-9.40045 -12.886395,-13.58343 -12.819017,-19.78917 0.04791,-4.41291 1.422143,-6.97158 8.06959,-15.02474 8.021916,-9.71828 18.739144,-20.40416 23.641764,-23.57261 1.264866,-0.81745 2.456299,-1.77609 2.647625,-2.13031 0.687688,-1.27317 0.36239,-4.2355 -0.986239,-8.98123 -1.496583,-5.26636 -1.572218,-6.12105 -0.775888,-8.76767 0.727919,-2.41925 1.725456,-4.35861 4.854325,-9.43753 3.410457,-5.536 4.179395,-7.43113 4.200854,-10.353447 0.01957,-2.663239 -0.721689,-5.174432 -2.700024,-9.14712 -0.733325,-1.472583 -1.332353,-2.928157 -1.331175,-3.234608 0.0039,-1.014936 1.474614,-3.174345 2.714108,-3.985052 2.176449,-1.423532 9.228511,-3.611706 13.216109,-4.100808 6.50519,-0.797897 11.3271,3.881612 12.66225,12.288296 0.18083,1.138636 0.47273,4.982698 0.64865,8.54236 0.5451,11.029719 1.14402,14.103069 3.34541,17.166709 2.44974,3.40928 9.00857,4.7157 16.32849,3.25241 2.26444,-0.45267 3.75219,-0.52737 6.81277,-0.34204 2.15362,0.13041 4.37476,0.41736 4.93586,0.63766 2.11105,0.82887 3.4391,2.79534 4.87496,7.21843 0.92582,2.85192 2.40894,5.22256 3.83643,6.13217 0.96593,0.6155 1.48967,0.68762 4.00665,0.55178 3.69642,-0.19949 4.86058,0.33742 8.73951,4.03067 3.96256,3.77289 7.34767,8.99714 10.10035,15.58791 0.83927,2.00945 0.93739,2.71655 1.10944,7.99488 0.24011,7.36673 0.48412,7.95189 4.94011,11.8472 3.92924,3.43484 4.72307,4.74964 4.47185,7.40659 -0.20876,2.20778 -1.2702,4.4923 -3.73752,8.04418 -1.32245,1.90375 -2.10623,2.64947 -3.74341,3.56163 -2.99646,1.66947 -4.06473,2.60568 -4.06842,3.56547 -0.002,0.49695 0.80543,1.85192 2.02549,3.39941 2.59538,3.29191 3.55303,4.9592 5.12205,8.91765 0.69955,1.76488 1.59245,3.732 1.98422,4.37138 0.84908,1.38572 2.99398,3.02466 6.39424,4.88588 l 2.49163,1.36386 -3.12594,3.05803 c -5.23119,5.11752 -5.56406,5.86023 -3.76098,8.39145 l 1.04008,1.4601 -1.44283,4.27393 c -1.621,4.80171 -1.58998,4.77128 -5.27124,5.16986 -1.73953,0.18834 -2.2104,0.39888 -3.2626,1.4588 -0.67633,0.68128 -1.68229,2.30385 -2.23549,3.60569 -0.83745,1.97081 -1.62428,3.00291 -4.70077,6.16607 -2.03224,2.08948 -4.21006,4.04106 -4.83961,4.33684 -1.49191,0.70095 -4.39224,0.64858 -6.31807,-0.11408 z"
     id="path2123"
     transform="scale(0.26458333)" />
  <path
     style="fill:#ffffff;stroke-width:0.34057"
     d="m 290.91152,293.91113 c -1.2164,-0.29847 -2.25441,-0.57084 -2.30669,-0.60526 -0.0523,-0.0344 0.14667,-1.95546 0.44212,-4.26897 0.96923,-7.58949 0.72377,-9.46635 -1.48276,-11.33756 -1.49047,-1.26396 -3.81887,-1.86376 -9.67347,-2.49189 -6.61334,-0.70955 -9.34381,-1.3479 -11.02882,-2.57843 -1.55249,-1.13373 -3.14595,-3.3385 -4.26231,-5.89746 -0.732,-1.67793 -1.87124,-6.07305 -1.8669,-7.2024 0.001,-0.28292 0.73154,-0.92714 1.62322,-1.43158 2.35232,-1.33078 2.81668,-1.80889 2.82089,-2.90449 0.0135,-3.52301 -4.84048,-8.12863 -8.58221,-8.14301 -1.31603,-0.005 -1.73274,0.21005 -3.67978,1.89952 -3.74996,3.25389 -5.57112,3.4704 -7.78797,0.92588 -2.31853,-2.66121 -2.90735,-5.66022 -1.85975,-9.47219 0.5177,-1.88382 0.5485,-2.4653 0.20425,-3.8569 -1.30063,-5.25775 -6.03815,-9.54087 -12.39782,-11.2087 -2.49584,-0.65453 -9.44544,-1.41494 -10.2259,-1.11888 -0.45516,0.17265 -0.54847,0.5762 -0.46111,1.99417 0.10223,1.65937 0.0497,1.79858 -0.78966,2.09128 -0.68322,0.23826 -1.62334,0.0869 -3.91417,-0.63017 -3.97268,-1.24352 -5.11958,-1.95391 -9.4895,-5.87783 -5.13563,-4.61146 -5.78652,-5.00487 -8.43948,-5.10098 -1.8851,-0.0683 -2.55034,-0.28713 -4.84131,-1.5926 -3.83056,-2.18277 -5.24222,-3.72686 -6.55473,-7.16968 -1.64205,-4.30721 -2.82413,-6.48221 -5.30242,-9.75633 l -2.25086,-2.97365 0.87153,-0.70215 c 0.47933,-0.38618 1.80508,-1.22131 2.94611,-1.85585 1.6537,-0.91964 2.42487,-1.65628 3.80122,-3.63096 5.21664,-7.48448 5.44008,-11.67532 0.84634,-15.87396 -4.09324,-3.74118 -5.37984,-5.21154 -5.79543,-6.62316 -0.23135,-0.78577 -0.40942,-3.33446 -0.40464,-5.79129 0.0106,-5.46545 -0.21135,-6.43909 -2.63454,-11.55521 -3.46055,-7.30628 -7.81694,-12.86334 -12.49197,-15.93491 l -2.19127,-1.4397 -3.4177,0.0563 -3.41771,0.0563 -1.26772,-1.34295 c -0.86714,-0.9186 -1.59819,-2.26735 -2.3136,-4.26848 -2.56336,-7.17022 -3.70004,-8.25446 -9.36104,-8.92921 l -2.02031,-0.24081 5.43466,-2.00155 c 2.98906,-1.10085 7.09906,-2.52314 9.13334,-3.16063 2.03428,-0.63749 4.2042,-1.46883 4.82206,-1.84741 1.38166,-0.84659 2.8768,-2.777 7.23489,-9.34112 9.33487,-14.060107 16.53605,-16.89797 28.502,-11.232164 3.77731,1.788533 4.11164,2.404678 2.97558,5.483811 -0.4302,1.166019 -1.51836,3.573153 -2.41813,5.349183 -2.82961,5.58532 -3.47106,8.34214 -2.62487,11.28105 0.61891,2.14954 1.52883,3.21559 4.96341,5.81509 1.40135,1.06062 5.68779,4.90576 9.52543,8.54475 3.83764,3.63898 7.85591,7.22629 8.9295,7.9718 1.58201,1.09857 1.91142,1.48706 1.738,2.04978 -0.11768,0.38187 -0.30774,2.02986 -0.42235,3.6622 -0.26716,3.80487 0.10306,4.50105 2.57298,4.83836 6.3895,0.8726 17.66499,6.95695 22.52807,12.15633 1.93478,2.06857 2.22946,2.58521 3.11191,5.45587 1.11643,3.63185 2.57078,6.89167 3.80012,8.51771 0.46662,0.6172 1.67507,1.59293 2.68544,2.16828 3.3592,1.91287 3.78191,2.86422 4.46475,10.04831 0.52982,5.57425 1.55516,6.93289 6.95718,9.21866 1.63878,0.69342 3.43581,1.72049 3.9934,2.28239 1.01306,1.02088 1.01363,1.02381 0.77841,3.98798 l -0.2354,2.96635 1.10175,1.2646 c 0.60597,0.69553 2.36356,2.18291 3.90578,3.30529 3.56309,2.59312 4.0748,3.54475 4.05941,7.54916 l -0.0113,2.93466 -1.45344,1.56469 c -1.85517,1.99716 -1.94879,3.23144 -0.35876,4.73011 2.49117,2.34803 7.87888,6.72316 13.09535,10.63416 3.04838,2.2855 5.33982,4.21661 5.0921,4.29136 -0.8653,0.2611 -1.64641,1.17574 -1.64931,1.93127 -0.002,0.41885 0.61223,1.50858 1.3641,2.42161 1.9379,2.35331 1.98382,2.83921 0.62307,6.59389 -2.00162,5.52299 -1.49903,8.78314 2.09128,13.56546 0.88892,1.18405 1.61568,2.29257 1.61503,2.46337 -6.6e-4,0.17081 -0.28832,0.4628 -0.63925,0.64888 -1.95038,1.03418 -2.23299,5.07718 -0.69233,9.90432 l 0.81836,2.56405 -0.97578,2.03307 c -1.11091,2.31462 -1.08024,3.4462 0.1804,6.65478 l 0.74474,1.89554 -0.79137,0.59217 c -0.43525,0.32569 -1.18819,1.36786 -1.6732,2.31593 -1.05162,2.05563 -2.27573,3.34953 -3.11619,3.29385 -0.33623,-0.0223 -1.60657,-0.2847 -2.82297,-0.58317 z"
     id="path2162"
     transform="scale(0.26458333)" />
  <path
     style="fill:#ffffff;stroke-width:0.34057"
     d="m 304.7546,236.62901 c -2.67881,-0.57755 -3.57404,-0.63802 -5.2244,-0.35287 l -1.99164,0.34413 -3.10949,-2.28511 c -8.20015,-6.02613 -16.51883,-12.94092 -16.51726,-13.72974 6.6e-4,-0.26002 0.60464,-1.12267 1.3425,-1.91701 1.5062,-1.62148 1.92121,-3.22755 1.69346,-6.55369 -0.21999,-3.21298 -1.25145,-4.86862 -4.51107,-7.24088 -1.55656,-1.13283 -3.23931,-2.54979 -3.73943,-3.14881 -0.87684,-1.05023 -0.90061,-1.18893 -0.6657,-3.88384 l 0.24362,-2.79471 -1.21447,-1.35471 c -0.84503,-0.94261 -2.11952,-1.75331 -4.18969,-2.66508 -5.64381,-2.48571 -6.28899,-3.42658 -6.81197,-9.93378 -0.47548,-5.91613 -1.19458,-7.36009 -4.64341,-9.324 -2.81985,-1.60575 -4.0044,-3.53192 -6.05312,-9.84282 -1.12488,-3.46508 -1.44473,-4.06547 -3.16675,-5.94418 -4.81444,-5.25248 -14.19334,-10.55994 -21.96938,-12.43233 -2.90855,-0.70036 -3.07098,-0.7877 -3.23822,-1.7414 -0.16014,-0.91321 0.2615,-5.26444 0.53658,-5.53742 0.0635,-0.063 1.16522,0.26866 2.44826,0.73705 6.3565,2.32057 11.3147,1.13684 13.95678,-3.33207 1.39543,-2.36027 1.07946,-3.92442 -1.45977,-7.22638 -2.48172,-3.22719 -2.72677,-3.88679 -1.7895,-4.81688 0.91871,-0.91168 2.68496,-0.8969 6.26107,0.0524 3.572,0.94819 6.57727,1.03847 7.81437,0.23476 0.50579,-0.3286 1.24055,-1.22061 1.63281,-1.98226 1.14505,-2.22333 1.20205,-5.15792 0.23042,-11.86295 -1.43066,-9.872751 -1.38676,-10.005258 2.98942,-9.02358 3.50584,0.786442 6.87825,0.834648 8.25201,0.117956 1.40826,-0.734691 2.049,-1.50556 3.05312,-3.673191 0.97883,-2.113048 1.39208,-2.670456 2.58368,-3.484995 1.39289,-0.952139 2.37105,-0.719294 3.94871,0.939964 1.87826,1.975406 3.12942,4.282617 7.36871,13.588316 5.24519,11.51375 8.01314,15.76644 11.67123,17.93171 l 1.58387,0.93751 9.53588,0.0416 c 8.67111,0.0379 9.8599,0.11383 13.10883,0.83772 7.78489,1.73454 14.89912,4.80897 20.01807,8.65087 5.51821,4.14157 6.45326,5.9419 7.494,14.4288 0.37291,3.04105 1.00458,6.60306 1.4037,7.91558 0.63377,2.08414 1.01002,2.66793 2.97064,4.60915 3.55322,3.51807 6.47894,8.32421 9.24772,15.19143 1.91895,4.75942 2.91163,8.71015 2.90073,11.54454 -0.008,2.16099 -0.056,2.28095 -1.67194,4.20763 -1.38478,1.65104 -9.02685,9.64419 -15.75373,16.4775 l -1.60244,1.62778 -1.71306,-1.37475 c -0.94219,-0.75612 -2.12516,-1.53325 -2.62882,-1.72696 -1.28529,-0.49433 -2.90609,0.24517 -4.29458,1.95941 -1.92458,2.37613 -2.8826,2.40198 -8.6887,0.23437 -3.10127,-1.1578 -4.57855,-1.16653 -5.93376,-0.0351 -1.49124,1.24504 -1.41901,2.73845 0.32136,6.64357 l 1.38281,3.10285 -0.76912,2.36077 c -0.60704,1.86332 -0.72246,2.77116 -0.54773,4.30829 0.65413,5.75451 0.66592,5.57469 -0.47651,7.26435 -0.58351,0.86303 -1.69404,2.00429 -2.46783,2.53614 -1.81794,1.24951 -4.62627,1.37083 -9.15087,0.39531 z"
     id="path2201"
     transform="scale(0.26458333)" />
  <path
     style="fill:#ffffff;stroke-width:0.34057"
     d="m 389.29236,379.10636 c -0.47453,-0.51694 -1.47407,-1.78516 -2.22118,-2.81827 -2.49051,-3.44384 -2.50022,-3.44697 -7.06718,-2.27391 -1.125,0.28896 -3.11207,0.52368 -4.41571,0.52159 -2.06856,-0.003 -9.16114,-0.72254 -12.3326,-1.25061 l -1.08407,-0.1805 0.49325,-1.16788 c 1.1999,-2.84101 0.41246,-4.72535 -3.46605,-8.29425 -4.01639,-3.69577 -4.1706,-4.00316 -4.1602,-8.29269 0.0101,-4.14901 -0.28645,-4.92806 -2.30284,-6.05049 -1.98123,-1.10286 -2.20509,-1.86741 -1.37974,-4.71214 0.37,-1.27525 0.67126,-2.7789 0.66947,-3.34145 -0.006,-2.02273 -1.67315,-5.7355 -5.47488,-12.19579 -6.82409,-11.59618 -7.36347,-12.84224 -7.34759,-16.97413 0.0109,-2.83681 -0.45014,-3.9035 -4.00261,-9.26056 -2.80807,-4.23451 -7.02758,-9.18651 -8.8822,-10.42412 -1.85868,-1.24032 -3.11428,-0.962 -6.93697,1.53764 -1.71403,1.12079 -3.59362,2.13133 -4.17688,2.24566 -1.62841,0.31917 -3.63978,-0.7959 -7.27771,-4.03464 -2.96197,-2.63696 -5.26619,-4.04395 -6.63135,-4.04919 -0.58357,-0.002 -1.58064,-2.06166 -2.18418,-4.51136 -0.37138,-1.50743 -0.33755,-1.70942 0.53298,-3.18186 1.10969,-1.87697 1.15141,-3.03937 0.20693,-5.76496 -1.44977,-4.18374 -1.23988,-7.32909 0.56745,-8.50339 1.27105,-0.82586 1.06874,-2.12619 -0.68498,-4.40266 -3.61741,-4.69564 -4.17694,-7.85614 -2.25199,-12.72017 1.60407,-4.05321 1.51398,-4.94159 -0.79293,-7.81939 -0.62783,-0.78319 -1.14118,-1.51056 -1.14077,-1.61636 0.001,-0.37817 3.38096,-1.88041 4.6627,-2.07264 0.76515,-0.11476 2.78589,0.10062 4.87931,0.52005 4.27113,0.85576 6.39362,0.91038 8.09874,0.20841 1.6053,-0.66088 4.02044,-2.97087 4.92968,-4.71505 0.72162,-1.38428 0.72684,-1.79826 0.091,-7.21843 -0.15602,-1.3301 -0.0216,-2.2983 0.55765,-4.01692 0.74037,-2.1966 0.74623,-2.31705 0.19563,-4.02256 -0.31217,-0.96699 -0.93444,-2.48907 -1.38282,-3.3824 -0.9746,-1.94175 -1.02807,-3.04742 -0.18403,-3.80539 0.92418,-0.82993 2.11775,-0.6891 5.505,0.64952 2.25041,0.88936 3.56821,1.20572 5.04599,1.2114 1.98839,0.008 2.01228,-0.004 4.07049,-2.02779 1.1387,-1.11951 2.22588,-2.03488 2.41597,-2.03415 0.19007,7.3e-4 1.0068,0.53551 1.81494,1.1884 2.058,1.66264 3.27479,2.30292 3.96544,2.08663 0.5805,-0.18179 16.97973,-16.95337 18.02677,-18.43606 0.51956,-0.73574 0.58773,-0.66554 3.16491,3.25971 5.05245,7.69526 10.12337,13.33184 13.49038,14.99523 1.65105,0.81567 2.13106,0.88427 6.14346,0.878 2.39386,-0.004 4.96486,0.15956 5.71334,0.36291 2.75347,0.74806 5.42084,4.82473 6.46884,9.88665 0.41103,1.98526 0.49201,4.23317 0.37929,10.52718 -0.23322,13.02104 -0.15231,16.34467 0.46685,19.17905 0.97302,4.45421 3.7738,7.61857 7.08495,8.00468 3.10168,0.36169 6.08981,-2.06648 9.00325,-7.31605 1.88412,-3.39491 1.71313,-3.3397 3.35981,-1.08475 2.75675,3.7751 6.29541,5.43466 12.23019,5.73571 7.02248,0.35623 6.98051,0.32029 6.95883,5.95955 -0.0258,6.72131 0.65915,7.35369 7.62239,7.03692 2.44292,-0.11113 4.64208,-0.0702 4.88701,0.091 0.24494,0.1612 0.67542,1.42859 0.95662,2.81643 0.98971,4.88449 2.03004,7.35278 6.17788,14.65764 1.31046,2.30787 2.3819,4.3907 2.38099,4.62851 -0.003,0.81329 2.3059,2.2061 8.20437,4.94886 3.24491,1.50887 6.1715,3.01716 6.50354,3.35175 0.56743,0.57178 0.56984,0.68854 0.0401,1.94286 -1.07079,2.53532 0.22796,7.19587 3.23211,11.59838 0.7217,1.05764 1.0012,1.80022 0.86728,2.3042 -0.10867,0.409 -1.42917,2.08061 -2.93444,3.71468 -4.79386,5.20409 -5.1581,7.02638 -2.32876,11.65074 2.47684,4.04824 2.43784,4.47023 -0.70179,7.59252 -1.72802,1.71849 -2.03015,2.79144 -1.95989,6.96011 0.0276,1.63912 -0.0135,2.97996 -0.0915,2.97966 -0.0779,-3e-4 -1.23572,-0.85257 -2.57288,-1.89395 -5.9102,-4.60284 -12.11058,-6.79751 -14.50494,-5.13412 -0.89095,0.61896 -0.94953,1.52186 -0.28519,4.39575 0.53984,2.33528 0.25708,3.24772 -1.00495,3.24287 -0.45124,-0.002 -1.22662,0.34352 -1.72306,0.76723 -0.75789,0.64686 -0.95955,1.20582 -1.25763,3.48604 -0.58512,4.47584 -0.50548,4.28009 -1.57411,3.86906 -1.19899,-0.46117 -8.21958,-0.50785 -8.67323,-0.0577 -0.18978,0.18832 -0.49015,1.77187 -0.66751,3.51901 -0.36483,3.59395 -1.1152,6.18894 -2.061,7.1275 -0.52236,0.51835 -1.15515,0.63572 -3.38151,0.62716 -1.5064,-0.006 -3.9212,0.25166 -5.36623,0.57211 -3.86156,0.85633 -5.4897,0.69507 -9.49542,-0.94053 -7.79158,-3.18143 -10.2629,-2.58395 -14.81124,3.58081 -4.79694,6.50174 -6.85603,7.79417 -8.8891,5.57943 z"
     id="path2240"
     transform="scale(0.26458333)" />
  <path
     style="fill:#ffffff;stroke-width:0.34057"
     d="m 254.13935,333.21572 c -6.3656,-0.93315 -10.1422,-2.71513 -14.60422,-6.89094 -3.92038,-3.66893 -7.73333,-6.41717 -11.2682,-8.12172 l -2.66353,-1.28438 -14.5937,0.023 c -12.59944,0.0199 -14.56767,-0.044 -14.4032,-0.46776 0.10478,-0.26994 0.37466,-2.14158 0.59974,-4.15922 0.69879,-6.26403 -0.13297,-10.27228 -2.42406,-11.68149 -0.62005,-0.38139 -2.29986,-1.0896 -3.7329,-1.57382 -5.72437,-1.93421 -5.74641,-4.24338 -0.0925,-9.69001 2.97687,-2.86772 3.75185,-4.32927 3.49315,-6.58784 -0.26606,-2.32285 -2.7303,-7.18491 -5.55465,-10.95958 -1.26504,-1.6907 -3.52096,-4.69932 -5.01315,-6.68582 -4.92322,-6.55411 -7.05107,-11.96361 -6.21364,-15.7965 0.4924,-2.25373 2.59709,-6.56221 3.41834,-6.99768 0.35511,-0.1883 1.74364,-0.49378 3.08563,-0.67885 1.34199,-0.18507 2.71136,-0.48039 3.04305,-0.65627 0.71716,-0.38027 3.51283,-7.96517 3.56805,-9.6804 0.0244,-0.75895 -0.29566,-1.64295 -0.92806,-2.56304 -0.88641,-1.28964 -0.92636,-1.4767 -0.48849,-2.28736 0.26228,-0.48557 1.48494,-1.81776 2.71703,-2.96043 1.23209,-1.14266 2.84957,-2.80981 3.59441,-3.70477 0.74484,-0.89497 1.68199,-1.70813 2.08256,-1.80703 1.16949,-0.28875 3.11791,0.95358 7.09138,4.52152 4.67144,4.19467 6.0196,5.0526 9.93844,6.32455 3.56149,1.15596 4.47116,1.23922 5.84575,0.53507 1.18933,-0.60924 1.41256,-1.14326 1.1558,-2.76487 l -0.20016,-1.26419 2.68578,0.25379 c 7.6039,0.71853 12.46028,2.78371 15.4579,6.57352 2.43617,3.07998 3.05342,5.37106 2.16138,8.0226 -1.69603,5.04143 0.89883,11.31959 5.22134,12.63277 1.85826,0.56454 3.64678,-0.14742 6.43415,-2.56126 2.42505,-2.10007 3.33549,-2.29786 5.48394,-1.19138 2.49806,1.28654 5.36481,5.28819 4.63135,6.46482 -0.10822,0.1736 -1.03846,0.7864 -2.0672,1.36179 -2.29881,1.28574 -2.4735,1.83878 -1.74285,5.5173 0.94881,4.77681 3.37806,9.3181 6.01431,11.24329 1.93892,1.41594 4.09259,1.98689 9.78123,2.59304 8.06636,0.85953 10.36547,1.5302 11.87454,3.46392 0.88587,1.13515 0.9169,3.26679 0.13808,9.4864 -0.4036,3.22318 -0.72382,4.62497 -1.16911,5.11784 -1.09637,1.2135 -1.34875,2.05271 -1.59547,5.3052 -0.39089,5.1529 -0.70446,5.5697 -5.31488,7.06442 -2.38619,0.77361 -3.43218,1.60666 -4.05394,3.22861 -0.47071,1.22791 -0.26506,2.254 1.23481,6.16103 l 1.17841,3.06969 -0.40372,3.47178 c -0.67472,5.80219 -1.79515,8.35091 -4.05379,9.22145 -2.96438,1.14255 -15.04037,1.99083 -19.34915,1.35919 z"
     id="path2279"
     transform="scale(0.26458333)" />
  <path
     style="fill:#ffffff;stroke-width:0.34057"
     d="m 319.51515,430.49746 c -2.10199,-0.35973 -4.57039,-1.2745 -5.39948,-2.00101 -0.34508,-0.30238 -1.20807,-1.5491 -1.91777,-2.77049 -1.58638,-2.73017 -2.63118,-3.73501 -5.2558,-5.05479 -4.75621,-2.39163 -11.44615,-3.87519 -20.58711,-4.56539 -12.85957,-0.97099 -15.02263,-1.1805 -18.55431,-1.79713 -9.69741,-1.69319 -18.40853,-6.36252 -19.50805,-10.4567 -0.20143,-0.75003 -0.36103,-3.8158 -0.35466,-6.81282 0.0131,-6.19303 -0.29831,-7.37019 -2.4548,-9.27834 -1.68012,-1.48665 -3.91158,-2.08596 -9.3808,-2.51944 -5.98136,-0.47407 -7.05807,-0.6454 -8.76879,-1.3953 -1.51761,-0.66526 -2.15192,-1.50442 -2.14679,-2.84009 0.004,-1.00667 1.10986,-1.58076 4.64226,-2.40964 2.77458,-0.65106 4.47405,-1.55912 4.86306,-2.59844 0.14841,-0.3965 0.0759,-2.04333 -0.16123,-3.65962 -1.35754,-9.25478 -1.8704,-15.45122 -1.86449,-22.52716 0.006,-7.52775 0.30114,-10.36615 1.6091,-15.48988 0.71979,-2.81963 2.61581,-7.9934 2.9289,-7.9922 0.0982,3.8e-4 1.19306,0.93759 2.43314,2.08269 6.38159,5.89285 16.50408,7.72142 30.46166,5.50272 4.36828,-0.69438 4.79691,-0.84274 5.89681,-2.04102 1.63743,-1.78389 2.52726,-4.83987 3.06637,-10.53099 0.23422,-2.47245 0.18662,-2.74017 -1.03012,-5.79369 -0.70162,-1.76081 -1.27729,-3.69537 -1.27927,-4.29903 -0.005,-1.51159 1.10281,-2.56576 3.463,-3.29545 2.98349,-0.9224 4.44845,-1.77636 5.06127,-2.95034 0.32167,-0.61621 0.6933,-2.591 0.88,-4.67615 0.33811,-3.77605 0.91113,-5.17761 2.21967,-5.42913 0.3481,-0.0669 1.75987,0.16359 3.13726,0.51221 2.46042,0.62274 2.52636,0.62218 3.75903,-0.0317 0.86805,-0.46051 1.5718,-1.25694 2.28377,-2.58455 0.56601,-1.05542 1.32229,-2.24026 1.68063,-2.63298 1.40362,-1.5383 3.79595,-0.5617 8.02323,3.27524 4.92097,4.46657 7.41709,5.11552 11.01042,2.86249 4.22554,-2.64943 5.50811,-3.35423 6.0998,-3.35195 1.80718,0.007 9.31493,9.1998 12.44387,15.23688 0.88501,1.70756 1.05793,2.45426 1.13683,4.90911 0.12101,3.76458 1.11993,6.11528 6.43117,15.13397 6.22947,10.57791 6.8678,12.29184 5.78106,15.52216 -0.67864,2.01726 -0.77245,4.07841 -0.232,5.09765 0.21372,0.40305 0.99017,1.04266 1.72545,1.42134 0.73528,0.37868 1.49411,0.98505 1.6863,1.34749 0.19218,0.36244 0.3434,2.22647 0.33604,4.14228 -0.0165,4.28594 0.42236,5.18045 4.23951,8.6417 3.92184,3.55619 4.41782,4.65327 3.32492,7.35457 -0.51307,1.26814 -0.64899,1.36669 -1.87839,1.36196 -1.74056,-0.007 -2.7982,0.97372 -2.4753,2.29454 0.12535,0.51275 0.74249,1.8793 1.37142,3.03679 1.58313,2.9136 1.84475,3.97247 1.20525,4.87806 -0.81104,1.1485 -1.99558,1.43553 -6.92325,1.67758 -4.79085,0.23533 -6.00461,0.5704 -7.32918,2.02327 -0.57617,0.63198 -0.68692,1.23881 -0.70684,3.87287 -0.0232,3.07246 -0.0444,3.15046 -1.2955,4.77601 -1.9505,2.53422 -1.78516,3.89229 0.85,6.98192 1.44398,1.69301 1.18202,3.42074 -1.2738,8.40133 -1.06573,2.16139 -1.93887,4.2372 -1.94031,4.61292 -0.001,0.37572 0.75886,1.93123 1.68957,3.45669 0.93072,1.52546 1.69084,3.12859 1.68918,3.56251 -0.004,1.05321 -0.80799,1.31091 -4.9444,1.58493 -6.3354,0.41969 -7.1948,0.99584 -6.80519,4.56221 l 0.2265,2.07327 -5.74835,-0.0622 c -3.16159,-0.0342 -6.5098,-0.19247 -7.44047,-0.35174 z"
     id="path2318"
     transform="scale(0.26458333)" />
  <path
     style="fill:#ffffff;stroke-width:0.34057"
     d="m 165.48768,440.69185 c -4.41795,-1.45008 -8.45615,-4.31858 -10.37459,-7.36952 -0.88267,-1.40372 -0.93731,-1.68986 -0.73056,-3.82535 0.22132,-2.28587 0.21238,-2.31928 -0.92659,-3.46369 -0.80049,-0.80432 -2.00188,-1.44231 -3.95248,-2.09896 -4.32815,-1.45702 -4.92955,-2.82398 -3.46429,-7.8742 0.90099,-3.10542 0.89525,-5.12262 -0.0189,-6.63522 -0.96486,-1.59654 -1.27763,-1.82145 -5.28309,-3.7991 -3.49969,-1.72794 -5.01279,-3.02878 -5.41424,-4.65475 -0.126,-0.51033 0.15872,-2.22743 0.69741,-4.20586 1.03355,-3.79592 1.15488,-6.03333 0.40641,-7.49444 -0.42806,-0.83564 -0.9509,-1.13709 -3.06757,-1.76868 -1.4226,-0.42448 -2.48924,-0.9219 -2.41071,-1.12421 0.0775,-0.19957 0.98932,-1.53592 2.02635,-2.96965 3.50174,-4.84131 7.11831,-12.60378 10.67983,-22.92283 1.02313,-2.9644 2.05609,-5.80825 2.29547,-6.31968 0.7134,-1.52417 2.73005,-2.22637 8.01392,-2.7905 6.03114,-0.64391 7.18058,-0.95773 8.5745,-2.34096 0.90965,-0.9027 1.13279,-1.39461 1.13706,-2.50673 0.005,-1.3172 -0.0966,-1.45291 -2.11771,-2.82636 -1.16767,-0.79349 -2.235,-1.60791 -2.37184,-1.80981 -0.42846,-0.63216 -0.27074,-3.40018 0.3035,-5.3266 1.29754,-4.35291 4.55498,-8.92905 8.71927,-12.24906 2.39312,-1.90794 6.47602,-4.01671 7.76735,-4.01174 0.44539,0.002 2.0163,0.53148 3.49093,1.17726 1.47463,0.64578 3.14225,1.27728 3.70582,1.40333 1.53998,0.34445 3.36567,-0.41454 5.28259,-2.1961 0.94597,-0.87916 2.04643,-1.76681 2.44548,-1.97253 0.49398,-0.25468 6.09804,-0.38396 17.55995,-0.40509 l 16.83442,-0.031 2.87038,1.45538 c 1.57871,0.80046 4.02743,2.32832 5.4416,3.39526 l 2.57123,1.93988 -1.12379,2.58136 c -1.33589,3.06859 -2.68164,8.01952 -3.30816,12.17051 -1.00609,6.66585 -0.42373,19.92463 1.43058,32.57072 0.43765,2.98469 0.43599,3.00147 -0.35757,3.62076 -0.43849,0.3422 -2.19174,0.96107 -3.89612,1.37525 -3.08549,0.74983 -5.0924,1.88904 -5.09626,2.89285 -0.001,0.26051 -0.57766,0.76664 -1.28147,1.12473 -4.03412,2.05252 -13.82686,12.49807 -17.67457,18.85281 -1.35555,2.23879 -1.56582,4.03426 -0.86336,7.37224 0.52369,2.4885 0.004,3.98557 -1.98884,5.72592 -1.32147,1.15423 -1.81692,1.37828 -3.03744,1.37359 -1.97436,-0.008 -3.149,1.20441 -4.5872,4.73307 -1.82583,4.47974 -2.8621,4.96626 -8.31082,3.9019 -1.46707,-0.28658 -3.152,-0.52142 -3.7443,-0.52186 -2.74923,-0.002 -7.31583,3.34242 -8.92163,6.53405 -1.07164,2.12996 -1.08649,2.7209 -0.1602,6.37448 0.4499,1.77454 0.64427,3.262 0.50011,3.82717 -0.51879,2.03386 -4.0249,2.5053 -8.26988,1.112 z"
     id="path2357"
     transform="scale(0.26458333)" />
  <path
     style="fill:#ffffff;stroke-width:0.34057"
     d="m 126.38618,383.49657 c -1.57356,-1.27826 -3.78608,-3.3227 -4.91673,-4.54321 -2.36166,-2.54936 -2.89605,-3.91631 -3.69037,-9.43991 -0.82389,-5.72911 -2.43032,-8.4052 -5.55905,-9.26059 -0.7404,-0.20243 -3.61543,-0.34901 -6.38896,-0.32574 -4.50892,0.0378 -5.18671,-0.033 -6.402341,-0.66893 -1.563672,-0.81801 -3.189361,-2.47163 -5.26594,-5.35641 -3.421595,-4.75325 -5.149073,-6.00511 -8.303401,-6.01723 -2.857034,-0.011 -4.556452,0.97557 -9.127719,5.29886 -4.278151,4.04608 -6.244818,5.32794 -11.365345,7.40789 -5.959243,2.42064 -8.839448,4.18233 -10.626304,6.49963 -0.892604,1.15759 -0.999924,1.58818 -1.166426,4.67991 l -0.183374,3.40503 -1.364889,0.67589 c -1.869165,0.92563 -6.932758,0.92453 -8.684599,-0.002 -2.286445,-1.20911 -2.322994,-1.28912 -1.767757,-3.86999 0.684161,-3.18014 0.422022,-8.47161 -0.548376,-11.06934 -0.438294,-1.1733 -1.397491,-2.69359 -2.389824,-3.78778 -2.407142,-2.65421 -5.134398,-3.78266 -10.956133,-4.5333 -0.889306,-0.11466 -1.616417,-0.33932 -1.615802,-0.49924 0.0021,-0.55311 3.017163,-2.89966 6.368504,-4.95649 1.850645,-1.1358 6.897225,-4.01329 11.214623,-6.39441 9.52113,-5.25109 11.231468,-6.31248 11.967837,-7.42695 0.937498,-1.41888 0.998295,-5.74928 0.219965,-15.66757 -0.513476,-6.54325 -0.671084,-10.80127 -0.548443,-14.81703 0.266062,-8.712 0.839876,-9.64287 8.195157,-13.29466 7.147994,-3.54887 9.319361,-6.23143 13.112876,-16.19998 2.591133,-6.80894 3.340327,-8.34597 5.457625,-11.19677 1.931935,-2.60122 3.503434,-3.76663 7.897261,-5.85653 1.876762,-0.89267 4.009745,-2.0941 4.739967,-2.66984 0.730221,-0.57575 1.677984,-1.04546 2.106136,-1.04382 2.166903,0.008 4.208712,3.57492 8.109182,14.16494 3.86131,10.48369 6.23044,14.64607 8.55164,15.02457 10.57694,1.72472 15.15037,3.65985 20.96958,8.87276 2.4082,2.15729 3.04562,3.19371 4.60838,7.49303 2.48946,6.84884 4.22768,7.93899 10.49919,6.58476 5.92743,-1.27994 8.30458,-0.43293 15.20378,5.41727 2.41891,2.05112 8.21965,8.27287 8.51413,9.13207 0.0566,0.16508 -1.01896,0.87761 -2.39009,1.58341 -3.63962,1.87351 -8.84867,7.10803 -10.79562,10.84842 -1.68722,3.24137 -2.48525,6.00667 -2.49539,8.64691 -0.008,2.18632 0.31453,2.66282 2.96879,4.38049 0.94467,0.61133 1.80059,1.33033 1.90204,1.59778 0.28572,0.75321 -1.40075,2.48261 -2.79815,2.86938 -0.69113,0.19129 -3.40309,0.57854 -6.02658,0.86056 -5.00936,0.53849 -6.99037,1.15043 -8.21349,2.53719 -0.39284,0.44539 -1.53925,3.18213 -2.54757,6.08164 -4.03414,11.60049 -7.48417,19.02574 -11.2661,24.24725 -1.05837,1.46124 -2.01803,2.71422 -2.1326,2.78442 -0.11456,0.0702 -1.49574,-0.91822 -3.06929,-2.19647 z"
     id="path2396"
     transform="scale(0.26458333)" />
  <path
     style="fill:#ffffff;stroke-width:0.34057"
     d="m 182.50449,321.19927 c -0.65462,-0.25671 -2.10823,-0.86497 -3.23025,-1.35168 -1.12202,-0.48671 -2.5764,-0.89548 -3.23195,-0.90836 -1.0814,-0.0213 -1.44338,-0.32667 -3.90393,-3.29374 -4.27541,-5.15555 -10.00521,-9.98086 -14.18679,-11.94734 -2.08703,-0.98146 -4.95077,-1.10201 -8.41402,-0.35417 -1.21856,0.26313 -2.96376,0.48092 -3.87823,0.48399 -1.46312,0.005 -1.79566,-0.13653 -2.77072,-1.17839 -0.62721,-0.67018 -1.50039,-2.26228 -2.01218,-3.66889 -2.04481,-5.61994 -3.06392,-7.2844 -6.03861,-9.86251 -5.36082,-4.64613 -10.45614,-6.94652 -18.03749,-8.14344 -3.72559,-0.58817 -3.73473,-0.59196 -4.72332,-1.95541 -1.66721,-2.29941 -3.43952,-6.18072 -5.99784,-13.13511 -3.56212,-9.68306 -5.33982,-13.07171 -7.429808,-14.16269 -1.695453,-0.88502 -3.314479,-0.60581 -4.940888,0.85209 -0.375925,0.33698 -2.372568,1.45375 -4.436985,2.48173 -2.064416,1.02797 -4.144993,2.11999 -4.623504,2.42671 -0.836075,0.53591 -0.968857,0.5103 -3.403205,-0.65648 -2.943535,-1.41084 -5.172513,-2.96152 -5.927776,-4.12392 -1.992482,-3.06656 -0.816645,-11.10479 2.02352,-13.83315 0.884514,-0.84969 18.747799,-9.58031 20.403697,-9.97224 0.817291,-0.19344 1.143859,0.16649 4.556659,5.02211 5.88549,8.3737 11.45171,13.26346 17.71907,15.56569 5.87437,2.15787 11.25544,0.99551 15.25955,-3.2962 2.00261,-2.14646 2.41555,-3.24234 1.9005,-5.04368 -0.611,-2.1369 -0.44014,-2.99652 0.71298,-3.58721 1.96724,-1.00774 2.61531,-0.63392 5.92428,3.4173 7.15283,8.75731 8.26131,10.00802 10.67995,12.05036 3.71915,3.14053 6.9227,4.68706 10.06249,4.85771 3.40278,0.18495 4.72331,-0.49963 8.56142,-4.43836 l 3.04714,-3.12702 0.0694,1.84391 c 0.0382,1.01415 0.43792,2.91694 0.88837,4.22842 1.23284,3.58944 2.2835,5.21631 9.96221,15.42573 4.37354,5.81497 6.62537,10.67696 5.93671,12.81816 -0.13502,0.4198 -1.71137,2.30007 -3.503,4.17836 -3.34586,3.50773 -4.187,4.84594 -4.19402,6.6725 -0.009,2.39189 1.44414,3.64979 5.93601,5.13777 1.30988,0.43391 2.77814,1.19183 3.27102,1.68851 1.52786,1.53965 2.00068,5.39459 1.27646,10.40697 -0.66055,4.5716 -0.44464,4.25545 -2.89964,4.24601 -1.98616,-0.008 -2.28632,0.0941 -3.80934,1.29108 -0.90932,0.71464 -1.87305,1.56396 -2.14162,1.88737 -0.56799,0.68396 -2.18244,1.56502 -2.82354,1.5409 -0.24341,-0.009 -0.97816,-0.22669 -1.63277,-0.48339 z"
     id="path2435"
     transform="scale(0.26458333)" />
  <path
     style="fill:#ffffff;stroke-width:0.34057"
     d="m 438.32916,476.40888 c -7.87384,-4.74024 -12.09255,-6.6533 -14.69397,-6.6633 -0.74225,-0.003 -2.19556,-0.59682 -4.11032,-1.67987 -5.96878,-3.37616 -10.59528,-4.22509 -16.20093,-2.97275 -3.09456,0.69134 -6.03156,0.50663 -6.70653,-0.42178 -0.26019,-0.3579 -0.93307,-2.15053 -1.49529,-3.98363 -1.45599,-4.74727 -1.98195,-5.25589 -7.25055,-7.01153 -1.12245,-0.37403 -3.01452,-1.09893 -4.20459,-1.61088 -3.96914,-1.70747 -8.5603,-1.57358 -12.56792,0.36651 -1.86698,0.90381 -5.21231,3.8015 -6.35898,5.50809 -0.66539,0.99029 -0.0758,0.96842 -12.75317,0.47309 l -8.27881,-0.32346 -0.683,-1.35161 c -1.0281,-2.03451 -5.42587,-13.49338 -6.99688,-18.23112 -1.594,-4.80708 -2.66662,-11.09069 -2.02427,-11.85864 0.48633,-0.58143 1.4539,-0.75776 6.22586,-1.13464 4.46999,-0.35302 5.35174,-0.79393 5.35899,-2.67972 0.004,-0.95526 -0.44374,-2.05323 -1.68695,-4.13987 -0.93058,-1.56189 -1.69164,-2.92089 -1.69126,-3.02 3.8e-4,-0.0991 0.85162,-1.97388 1.89165,-4.16616 2.72884,-5.75213 2.87614,-7.71536 0.758,-10.10281 -2.17309,-2.44937 -2.17355,-2.58337 -0.0191,-5.57264 0.96424,-1.33788 1.02292,-1.59671 0.95752,-4.22356 -0.0591,-2.37314 0.036,-2.93158 0.62562,-3.6753 0.91381,-1.15259 2.57073,-1.57015 6.18448,-1.55858 8.33114,0.0267 10.10844,-2.13189 6.96256,-8.45621 -0.82734,-1.66323 -1.40923,-3.11836 -1.2931,-3.2336 0.3811,-0.37818 3.38149,-0.20856 9.53238,0.53888 6.75847,0.82126 11.06632,0.76703 13.97828,-0.17598 1.72136,-0.55744 1.81834,-0.55518 2.49087,0.0582 0.38488,0.35101 1.37546,1.59281 2.20128,2.75956 1.89474,2.67694 2.9788,3.54032 4.45236,3.54598 2.522,0.01 4.2657,-1.43722 8.26584,-6.85897 4.20742,-5.70271 5.95908,-6.2273 12.31986,-3.68957 5.61563,2.24044 6.50559,2.3738 10.15365,1.52159 1.8959,-0.4429 4.19644,-0.71538 5.98194,-0.70852 3.12837,0.012 4.35207,-0.34825 5.11746,-1.50666 0.81731,-1.23697 1.58034,-4.25675 1.81734,-7.19238 l 0.22495,-2.78635 1.76661,-0.21383 c 1.57295,-0.19039 4.57645,0.13136 6.48021,0.69419 1.37186,0.40558 1.92528,-0.50816 2.26546,-3.74052 0.35209,-3.3454 0.94141,-4.59556 2.16413,-4.59086 2.1199,0.008 2.77306,-1.8413 1.9231,-5.44536 -0.59963,-2.54255 -0.36682,-2.85196 1.97646,-2.62673 2.43855,0.23438 5.14185,1.43445 8.87807,3.94121 3.41001,2.28791 8.66221,7.38842 9.36898,9.09841 0.53848,1.30281 0.40281,2.48205 -0.90723,7.88558 -0.36297,1.49713 -0.66385,3.46083 -0.66863,4.36378 -0.008,1.4239 0.17332,1.85928 1.36312,3.28137 1.53815,1.83845 2.69125,4.55404 2.68445,6.322 -0.002,0.64645 -0.39029,2.36747 -0.86178,3.82448 -0.4715,1.45702 -0.86136,3.20511 -0.86636,3.88464 -0.0121,1.64608 -0.66815,3.12094 -3.45899,7.77633 -2.58831,4.31756 -3.09966,5.65632 -2.28176,5.97379 0.28504,0.11063 2.08644,-0.0549 4.00313,-0.3678 2.9514,-0.48186 3.83829,-0.5044 5.79335,-0.14725 4.15776,0.75954 6.30105,2.71747 9.42726,8.61202 2.83346,5.34257 2.65982,5.85657 -4.40955,13.05295 -4.93717,5.02588 -5.48188,5.88731 -5.87615,9.29283 -0.58481,5.05138 -2.94987,9.73137 -6.94231,13.73747 -2.94417,2.95426 -5.3659,4.43701 -10.391,6.36213 -6.31729,2.42016 -8.40505,3.53766 -10.09618,5.40413 -2.73156,3.01477 -3.19495,6.26363 -2.53442,17.76933 0.1899,3.30784 0.17283,5.02411 -0.05,5.02325 -0.18613,-7.1e-4 -2.54201,-1.32791 -5.23529,-2.94933 z"
     id="path2474"
     transform="scale(0.26458333)" />
  <path
     style="fill:#ffffff;stroke-width:0.34057"
     d="m 508.79246,424.61691 c -2.06928,-0.65492 -3.03289,-1.38028 -3.77244,-2.8397 -1.70944,-3.3734 -5.49951,-6.91224 -9.69038,-9.04804 -3.06066,-1.55981 -4.56966,-2.01021 -6.82181,-2.03615 l -2.05085,-0.0236 -1.63153,-3.16623 c -2.90145,-5.63072 -5.65799,-7.99186 -10.19777,-8.735 -2.16263,-0.35401 -6.67424,-0.0645 -8.23784,0.52863 -0.269,0.10204 -0.48875,0.0961 -0.48833,-0.0131 4.2e-4,-0.10927 0.94922,-1.76955 2.10845,-3.68949 2.84147,-4.70615 3.71273,-6.63433 3.72898,-8.25261 0.008,-0.74923 0.3992,-2.58682 0.8704,-4.08353 0.47121,-1.49671 0.85577,-3.41095 0.85459,-4.25387 -0.003,-1.95761 -1.22111,-4.95476 -2.8072,-6.90562 -1.50292,-1.84857 -1.5316,-2.43294 -0.3639,-7.41568 0.98109,-4.18649 1.16467,-6.98079 0.53824,-8.19299 -0.23497,-0.45469 -1.10825,-1.63804 -1.94062,-2.62966 -1.38329,-1.64796 -1.54113,-2.02918 -1.83606,-4.43451 -0.35506,-2.89577 -0.13193,-5.49473 0.5884,-6.85332 0.25706,-0.48484 1.09296,-1.4826 1.85756,-2.21726 2.57191,-2.47118 2.58257,-4.21433 0.0505,-8.25797 -1.65664,-2.64558 -1.98987,-4.30124 -1.17851,-5.85555 0.31139,-0.59654 1.7677,-2.41666 3.23624,-4.04472 2.88234,-3.19544 3.45974,-4.05514 3.46398,-5.15759 0.002,-0.392 -0.83656,-2.11711 -1.86237,-3.83358 -2.60187,-4.35368 -3.28052,-6.82494 -2.48964,-9.06591 0.4147,-1.17506 0.53308,-1.2149 5.25982,-1.77018 5.75289,-0.67582 6.01843,-0.93807 5.30042,-5.23487 -0.39515,-2.36476 -0.36878,-2.65944 0.508,-5.67597 1.90078,-6.53962 3.79153,-8.15881 8.86911,-7.5953 2.2409,0.2487 2.80818,0.53633 6.7885,3.44208 2.79503,2.04045 5.58685,1.45959 6.73897,-1.40208 0.22992,-0.57109 0.36993,-3.00984 0.35207,-6.13237 -0.0335,-5.86033 0.10911,-6.41766 2.41901,-9.45278 1.6192,-2.12756 2.60647,-2.75324 5.06444,-3.20961 3.55855,-0.6607 8.19732,0.98164 12.72602,4.50561 4.03677,3.14118 6.32705,7.05746 6.31269,10.79441 -0.01,2.47186 0.96537,6.59537 2.17647,9.20598 2.41831,5.21287 7.11332,8.41453 10.12975,6.90775 0.40993,-0.20477 2.06822,-1.73097 3.68509,-3.39156 4.12835,-4.23998 4.8594,-4.15094 8.80395,1.07238 2.81275,3.72459 4.70778,4.50291 7.66432,3.14785 0.75059,-0.34401 1.82635,-1.11286 2.39058,-1.70856 l 1.02588,-1.0831 0.54334,6.09551 c 1.08681,12.19229 2.55431,18.78172 7.53354,33.8273 4.43883,13.41266 5.84571,17.06846 7.48173,19.4414 2.25479,3.27045 3.54726,3.87423 10.67359,4.98622 0.7074,0.11039 1.27564,0.39309 1.27471,0.63417 -0.004,1.14958 -3.18297,6.7836 -4.64645,8.23587 -1.39453,1.38386 -1.71607,1.54853 -2.70319,1.38445 -0.61621,-0.10243 -2.39205,-0.93168 -3.9463,-1.84277 -2.12646,-1.24651 -3.17119,-1.65785 -4.22089,-1.66189 -2.94573,-0.0113 -4.18519,1.81151 -5.31136,7.81125 -0.75214,4.00711 -1.45185,5.7611 -2.59441,6.50347 -1.10976,0.72105 -2.15732,0.33537 -5.84906,-2.15348 -3.24692,-2.18896 -4.7121,-2.65612 -5.47393,-1.74532 -0.20311,0.24284 -1.31646,3.03551 -2.4741,6.20595 -1.15764,3.17044 -2.73714,7.0451 -3.50998,8.61035 -1.42509,2.88626 -4.01947,6.04508 -6.15918,7.49917 -1.73093,1.1763 -2.82309,2.94149 -4.15034,6.70787 -1.62112,4.60033 -2.44384,6.11702 -3.75302,6.91877 -1.39628,0.85508 -2.04796,0.69132 -5.69715,-1.43172 -3.09642,-1.80145 -4.67768,-2.11437 -6.00938,-1.18922 -0.40155,0.27896 -2.3525,2.62699 -4.33544,5.21783 -1.98295,2.59084 -4.32772,5.34155 -5.21062,6.1127 -2.55763,2.23393 -6.23278,2.95691 -9.60525,1.88955 z"
     id="path2513"
     transform="scale(0.26458333)" />
  <path
     style="fill:#ffffff;stroke-width:0.34057"
     d="m 470.18197,300.53246 c -0.75557,-0.60164 -3.66151,-2.14935 -6.45766,-3.43937 -7.14139,-3.29471 -7.00033,-3.18707 -8.92623,-6.81191 -0.91743,-1.72675 -2.50936,-4.65043 -3.53763,-6.49706 -1.80827,-3.24742 -3.36406,-7.4721 -3.78838,-10.28715 -0.56663,-3.75922 -1.08885,-4.0327 -7.14529,-3.7419 l -4.51505,0.21678 -0.8804,-0.88719 c -0.85064,-0.8572 -0.87986,-1.02643 -0.86457,-5.0064 0.0245,-6.38084 -0.34156,-6.74252 -7.29461,-7.2066 -2.43447,-0.16249 -4.91942,-0.44632 -5.52211,-0.63073 -3.33491,-1.02043 -6.44521,-3.67556 -7.92713,-6.76704 -0.88821,-1.85293 -1.26585,-5.66308 -0.63593,-6.41618 0.61009,-0.72939 2.51647,-0.64278 8.02413,0.36455 8.07842,1.47752 12.30158,1.08428 14.4517,-1.34567 1.34454,-1.51953 1.31454,-2.46591 -0.16268,-5.13143 -0.6633,-1.19686 -1.15632,-2.51617 -1.09559,-2.93181 0.11958,-0.81853 -0.21987,-0.78678 5.33162,-0.49868 l 2.15662,0.11192 1.59614,-1.794 c 2.00388,-2.25229 2.78281,-2.39707 7.68923,-1.42931 5.50227,1.08529 6.71325,0.74133 9.85982,-2.80051 1.56069,-1.75674 2.5163,-2.4823 4.44041,-3.37144 2.71873,-1.25634 5.14454,-2.95982 9.38239,-6.58856 3.16743,-2.71219 5.39534,-4.3066 6.70591,-4.79912 1.2466,-0.46848 2.24903,0.003 5.80502,2.72801 3.78603,2.90173 5.3328,3.44996 7.1941,2.54983 2.05325,-0.99295 2.77266,-2.6668 3.51888,-8.18736 0.65398,-4.83815 1.25708,-6.61277 2.46501,-7.25327 1.04681,-0.55507 1.67913,-0.19556 4.17115,2.37156 1.30309,1.34235 2.6676,2.42909 3.17407,2.52793 0.64421,0.12571 2.37327,-0.54841 6.29068,-2.45262 7.22286,-3.51093 9.85525,-4.20455 14.82481,-3.90622 3.47028,0.20832 3.82855,0.17262 4.38444,-0.4369 1.14844,-1.25925 0.23292,-3.53458 -4.54072,-11.28498 -2.93613,-4.76707 -4.39192,-7.61214 -4.39373,-8.58678 -10e-4,-0.6431 1.30794,-1.06861 4.39773,-1.42937 2.12889,-0.24857 3.59328,-0.90652 3.9495,-1.77452 0.13716,-0.3342 0.38874,-4.20866 0.55907,-8.60991 0.17034,-4.40125 0.49097,-8.6146 0.71252,-9.36301 0.56525,-1.90942 5.05201,-10.1639 6.01016,-11.05712 l 0.79372,-0.73994 2.65482,2.26915 c 4.62502,3.95313 9.67694,6.01182 13.59028,5.53815 3.41024,-0.41277 6.32778,-2.20516 10.70935,-6.57927 2.16558,-2.1619 5.01251,-5.11433 6.3265,-6.56097 2.37363,-2.61323 2.40011,-2.63022 4.09008,-2.62372 2.66865,0.0103 6.53502,1.51629 14.75844,5.74871 4.18714,2.15504 8.92928,4.4578 10.53809,5.11725 4.51255,1.84968 5.06321,2.69684 6.79624,10.45563 0.78262,3.50381 1.93688,5.96981 3.35864,7.1755 0.56236,0.47689 2.39252,1.36311 4.06703,1.96937 1.81835,0.65833 3.38588,1.46622 3.89201,2.00589 1.21079,1.29103 1.67986,3.36091 1.21921,5.38001 -0.47217,2.06961 -0.85024,2.5035 -2.17698,2.4984 -1.50155,-0.006 -4.22197,-1.7347 -10.56764,-6.71611 -2.98802,-2.34563 -6.48579,-4.80049 -7.77282,-5.45525 -6.52706,-3.32055 -8.70509,-0.17234 -9.44225,13.64823 -0.37849,7.09607 -0.43615,7.2693 -3.02392,9.08512 -2.25875,1.58495 -3.87342,1.56284 -7.38911,-0.10118 -3.71002,-1.75599 -4.89014,-1.99864 -6.27365,-1.28993 -1.17603,0.60244 -1.36765,1.12439 -1.50699,4.10503 -0.0937,2.00435 -0.12056,2.05518 -1.41685,2.68198 -1.04955,0.50749 -2.54322,0.69287 -7.26196,0.90128 -3.26736,0.1443 -6.58304,0.43069 -7.36819,0.63641 -4.82752,1.26488 -6.69929,4.40001 -6.28773,10.53169 0.23771,3.54158 0.10898,3.96868 -2.29405,7.61093 -1.53167,2.32154 -1.7802,2.92904 -1.78572,4.36492 -0.005,1.40538 0.14356,1.79806 0.94598,2.49365 1.26751,1.09877 1.86884,1.05107 5.13174,-0.4071 1.52377,-0.68096 3.18144,-1.23654 3.6837,-1.23461 1.2483,0.005 4.36981,1.97089 6.58342,4.14658 3.70652,3.64303 6.42297,8.89965 6.79723,13.1534 l 0.18547,2.10805 -2.62667,2.96681 c -1.44467,1.63175 -2.75299,3.40098 -2.90739,3.93163 -0.37307,1.28217 0.15911,2.72475 2.13066,5.77558 2.88113,4.45834 3.47099,6.5447 2.41973,8.55861 -0.73732,1.41249 -1.87874,1.74504 -5.93608,1.72944 -3.11666,-0.012 -3.88318,0.0985 -5.17917,0.74638 -1.82706,0.91339 -2.82285,2.51664 -3.5764,5.75808 -1.01861,4.38162 -0.55013,8.20251 1.08335,8.83561 2.66414,1.03254 4.65656,2.28025 5.88241,3.68374 1.88952,2.16332 3.55595,5.28632 4.2451,7.95561 0.55802,2.16141 0.55543,2.29752 -0.07,3.67038 -0.80634,1.76996 -3.3047,3.99952 -4.78664,4.27164 -1.64984,0.30296 -2.9105,-0.53232 -4.91278,-3.25506 -2.8571,-3.88514 -4.23053,-4.76886 -6.70522,-4.31445 -0.99531,0.18277 -1.89617,0.88809 -4.37628,3.42639 -3.4422,3.52297 -3.93914,3.72371 -6.25966,2.52861 -2.65785,-1.36884 -5.14465,-4.89237 -6.28642,-8.90721 -0.29371,-1.0328 -0.67947,-3.46911 -0.85724,-5.41402 -0.36705,-4.01565 -1.14683,-6.09022 -3.24207,-8.6254 -1.99597,-2.41507 -5.39981,-5.01354 -8.60755,-6.57094 -2.63983,-1.28167 -3.14597,-1.40737 -6.2102,-1.54224 -3.06226,-0.13479 -3.48726,-0.0736 -5.17714,0.74513 -1.26767,0.61418 -2.26214,1.44532 -3.19329,2.6688 -2.62376,3.44752 -2.65275,3.551 -2.69459,9.62047 -0.0414,6.00774 -0.35023,7.36316 -1.85051,8.12208 -1.14831,0.58086 -1.85475,0.30148 -4.59934,-1.81892 -2.77252,-2.14198 -4.07922,-2.58387 -7.73655,-2.61624 -2.74189,-0.0243 -3.05189,0.0456 -4.39591,0.99006 -1.83646,1.29056 -3.12114,3.56723 -4.29563,7.61258 -0.89839,3.09439 -0.91437,3.29127 -0.49278,6.07168 0.3474,2.29114 0.34943,2.92645 0.01,3.13443 -0.23414,0.14347 -1.98611,0.43834 -3.89326,0.65526 -1.90715,0.21692 -3.69764,0.44868 -3.97887,0.51502 -0.28122,0.0663 -1.12951,-0.37162 -1.88509,-0.97325 z"
     id="path2552"
     transform="scale(0.26458333)" />
  <path
     style="fill:#ffffff;stroke-width:0.34057"
     d="m 596.32079,360.21087 c -0.93556,-0.2638 -3.00304,-0.65465 -4.5944,-0.86856 -5.20656,-0.69989 -7.15115,-2.08285 -9.46766,-6.73326 -1.50882,-3.02895 -8.84962,-24.96544 -10.25052,-30.63159 -2.13019,-8.6159 -3.37853,-18.03752 -3.67704,-27.75188 -0.0699,-2.2753 -0.3306,-4.50271 -0.62197,-5.31439 -1.92275,-5.35614 -5.6413,-9.64143 -9.33496,-10.75767 -1.88543,-0.56978 -2.20751,-1.36855 -1.98351,-4.91906 0.20779,-3.29368 1.37084,-6.42265 2.76947,-7.4508 0.82642,-0.60751 1.60424,-0.7317 5.45251,-0.87053 5.114,-0.18451 5.67243,-0.40183 6.76527,-2.63285 1.28578,-2.62491 0.67638,-4.8633 -2.82737,-10.38527 -0.9287,-1.46364 -1.6871,-3.03695 -1.68533,-3.49623 0.002,-0.53913 0.71531,-1.62085 2.0126,-3.05239 3.07644,-3.3948 3.55006,-4.15946 3.55044,-5.73222 7.5e-4,-3.1456 -1.72957,-8.14792 -3.94684,-11.41018 -2.48934,-3.66258 -7.3165,-7.62107 -10.06214,-8.25141 -1.23182,-0.2828 -2.63542,0.0972 -6.29921,1.70527 l -1.82409,0.80063 -0.64505,-0.8029 c -0.90328,-1.12431 -0.81681,-1.6777 0.62161,-3.97804 3.13022,-5.00589 3.22313,-5.2957 2.99325,-9.33715 -0.19436,-3.41714 -0.15372,-3.75861 0.65552,-5.50842 1.50775,-3.2602 3.42189,-3.94489 12.04264,-4.30771 5.95817,-0.25076 8.16052,-0.74117 9.2583,-2.0616 0.22621,-0.27209 0.46133,-1.63392 0.52249,-3.02629 0.10478,-2.38523 0.16288,-2.54948 1.00499,-2.84092 0.73618,-0.25479 1.48979,-0.0279 4.27379,1.28651 4.70212,2.22007 7.07155,2.0862 10.25405,-0.57936 1.90747,-1.59764 2.09766,-2.3095 2.49028,-9.32098 0.36667,-6.54789 0.73378,-9.0477 1.65185,-11.24803 1.67029,-4.00315 4.01243,-3.27369 13.70322,4.26789 3.26824,2.54341 6.80484,5.08889 7.85911,5.65662 2.21811,1.19447 4.24512,1.36067 5.38878,0.44184 0.93222,-0.74895 1.79052,-4.15911 1.50655,-5.98571 l -0.20478,-1.31715 2.17745,0.24363 c 7.1171,0.79633 13.14465,3.28358 16.63443,6.86414 1.46617,1.50431 1.58892,1.55845 3.56188,1.57099 2.7494,0.0175 6.1646,0.61235 7.82589,1.36314 4.27665,1.93277 5.86677,6.60037 6.10921,17.93277 l 0.13844,6.47142 -4.33565,5.09193 c -7.6773,9.01645 -10.94659,14.21149 -11.97328,19.02605 -0.65235,3.05913 -0.65337,5.03868 -0.006,12.20034 0.71573,7.92133 0.25629,11.08823 -2.38937,16.46973 -1.24988,2.54239 -4.22432,5.89475 -6.30002,7.1005 l -1.5137,0.87928 -1.2811,-0.89511 c -1.67186,-1.16814 -2.29779,-1.13166 -2.97914,0.17362 -0.30809,0.59021 -1.21472,1.77447 -2.01473,2.63169 -2.65469,2.84456 -2.82106,4.00098 -1.16389,8.09001 1.13836,2.80887 1.24969,4.20042 0.86743,10.84225 -0.11614,2.01784 -0.0204,2.57296 0.62436,3.61861 1.04917,1.70164 0.95943,3.32131 -0.3235,5.83869 -0.59151,1.16066 -1.44307,3.07566 -1.89237,4.25557 -1.40572,3.69155 -2.78169,6.05998 -4.74012,8.15907 -1.04044,1.11518 -1.89408,2.31361 -1.89698,2.6632 -0.003,0.35154 1.07888,1.65543 2.42062,2.91755 2.28898,2.15318 2.41292,2.34585 2.19616,3.41417 -0.12636,0.62272 -1.04956,2.35513 -2.05158,3.8498 -2.20081,3.28286 -2.4968,4.16947 -2.78211,8.33334 -0.1219,1.77902 -0.36971,3.84705 -0.55071,4.59562 -0.18099,0.74856 -0.3385,2.86017 -0.35001,4.69247 -0.0212,3.36987 -0.45097,5.11279 -1.46696,5.94875 -0.28677,0.23596 -1.80674,0.7469 -3.3777,1.13541 -5.434,1.3439 -6.43864,2.35293 -6.45451,6.48281 -0.01,2.56181 -0.53433,3.46602 -2.53105,4.36352 -1.68333,0.75663 -5.02479,0.79603 -7.53296,0.0888 z"
     id="path2591"
     transform="scale(0.26458333)" />
  <path
     style="fill:#ffffff;stroke-width:0.34057"
     d="m 723.23939,427.83501 c -2.64004,-0.68114 -4.55163,-2.10496 -8.18621,-6.09738 -5.72114,-6.28442 -7.97422,-8.36454 -10.32657,-9.53385 -2.09429,-1.04104 -2.28099,-1.07197 -5.49149,-0.90976 -2.52626,0.12764 -4.26411,0.46319 -7.2448,1.39888 -2.35948,0.74067 -4.93895,1.30129 -6.4763,1.40754 -2.30304,0.15917 -2.6722,0.096 -3.74383,-0.64088 -0.65388,-0.44961 -1.23702,-1.16105 -1.29588,-1.58098 -0.0614,-0.43846 0.63376,-2.12508 1.63295,-3.96164 1.72942,-3.17876 2.14083,-4.89833 1.32321,-5.53058 -0.23345,-0.18052 -1.31944,-0.68718 -2.41332,-1.1259 -1.77627,-0.71242 -7.41187,-4.32464 -11.35255,-7.27659 -1.32093,-0.9895 -1.49579,-1.03767 -1.9893,-0.54794 -0.33052,0.32799 -0.65956,1.55809 -0.84558,3.16116 -0.16748,1.44333 -0.39659,2.91054 -0.50914,3.26046 -0.34085,1.05977 -4.57153,4.66114 -6.19608,5.27442 -1.38079,0.52125 -1.62386,0.52603 -2.60957,0.0513 -1.43971,-0.69336 -4.47812,-3.23428 -10.43607,-8.72733 -2.69647,-2.48608 -5.97232,-5.34298 -7.27966,-6.34868 -2.62297,-2.01777 -5.19939,-5.02278 -6.25951,-7.30079 -0.51775,-1.11256 -0.68663,-2.17711 -0.681,-4.29284 0.0126,-4.72542 -1.12688,-6.43402 -7.30618,-10.95548 -1.69718,-1.24184 -3.5039,-2.86622 -4.01493,-3.60972 -1.76586,-2.56918 -2.83929,-7.6855 -2.90494,-13.84588 -0.0439,-4.1183 0.83501,-14.86424 1.67349,-20.46107 0.0869,-0.57983 1.07785,-2.47683 2.20218,-4.21556 3.16685,-4.89741 3.11721,-6.20862 -0.34964,-9.23541 l -1.99595,-1.7426 1.68694,-1.83159 c 1.99338,-2.16431 3.35353,-4.47306 4.65264,-7.89748 0.52124,-1.37398 1.4689,-3.48877 2.10593,-4.69953 1.47987,-2.81275 1.55882,-4.82174 0.28603,-7.27886 -0.86925,-1.67809 -0.87728,-1.75802 -0.44735,-4.45348 0.5867,-3.67837 0.28485,-6.44256 -1.09926,-10.06636 -1.34336,-3.51713 -1.28776,-3.86563 1.00474,-6.29769 0.83729,-0.88827 1.69364,-1.98719 1.903,-2.44205 l 0.38066,-0.82702 1.1982,0.81986 c 0.65901,0.45093 1.44501,0.81937 1.74668,0.81878 1.0731,-0.002 4.04242,-2.00128 5.78883,-3.89744 2.21891,-2.40918 3.37018,-4.34424 4.55873,-7.66234 1.62437,-4.53478 1.84697,-7.23879 1.19183,-14.47769 -0.3151,-3.4817 -0.48452,-7.44227 -0.37648,-8.80128 0.26091,-3.28204 1.5251,-6.74674 3.75147,-10.28145 1.89422,-3.00738 7.88442,-10.64398 11.13825,-14.19959 l 1.86968,-2.04309 -0.18215,-6.81216 c -0.10019,-3.74668 -0.2714,-7.52714 -0.38047,-8.40101 l -0.1983,-1.58886 1.97315,-0.23883 c 2.51581,-0.30452 8.81545,0.0943 11.89404,0.75293 4.41434,0.94445 7.31708,2.90549 7.30927,4.93803 -0.002,0.50087 -0.56206,1.81905 -1.24476,2.9293 -2.48067,4.03426 -3.03441,6.01543 -2.16392,7.74207 0.20667,0.40994 1.41028,1.82212 2.67468,3.13819 1.41488,1.47268 2.4565,2.89619 2.70869,3.70179 0.30172,0.96382 0.33766,3.13137 0.13633,8.22082 -0.39174,9.90266 0.0535,10.95458 6.07959,14.3639 5.27892,2.98659 5.62472,3.94186 5.66606,15.65248 l 0.0301,8.52198 1.01391,2.03211 c 1.24198,2.48925 2.00219,3.06311 5.2636,3.97339 3.33705,0.93139 3.91297,1.34763 4.35966,3.15081 0.47291,1.90906 0.0981,4.27426 -1.70725,10.77308 -2.11459,7.61204 -1.89184,8.53803 2.04375,8.49609 4.01029,-0.0428 9.81076,2.45859 17.54395,7.56549 6.68204,4.41272 13.70396,10.7703 13.69769,12.40176 -0.004,1.06498 -0.8653,2.09602 -3.81089,4.56244 -3.54269,2.96638 -4.53472,4.42143 -4.51006,6.61509 0.03,2.67233 1.40615,4.40315 6.71296,8.44327 6.75205,5.1404 7.02497,6.48471 2.92926,14.42824 -2.47277,4.79587 -2.66374,5.31771 -2.78893,7.62102 -0.21275,3.91442 0.47161,4.57567 5.61318,5.42359 6.30657,1.04005 6.7018,1.73766 7.18433,12.681 0.15695,3.55959 0.45211,7.03707 0.65593,7.72773 0.22502,0.76258 1.42891,2.42337 3.06543,4.22884 4.30765,4.75238 5.04353,7.06527 2.85465,8.97228 -0.66034,0.57531 -1.63643,1.26927 -2.16909,1.54213 -0.53266,0.27286 -1.4531,1.04381 -2.04543,1.71322 -0.99512,1.12464 -1.07766,1.40387 -1.08639,3.67522 -0.006,1.61112 0.52144,5.04157 1.53129,9.95578 1.20936,5.88511 1.54814,8.26684 1.57516,11.07384 0.0325,3.37717 -0.0228,3.67961 -0.99445,5.43575 -1.25941,2.27631 -2.98231,3.53757 -4.43994,3.2503 -0.56152,-0.11066 -2.47311,-1.18699 -4.24797,-2.39184 -4.23732,-2.87647 -5.10303,-3.28589 -6.96311,-3.29303 -2.11089,-0.008 -3.29898,0.54347 -6.34105,2.94394 -4.00181,3.15778 -5.11499,3.60019 -7.50633,2.98321 z"
     id="path2630"
     transform="scale(0.26458333)" />
  <path
     style="fill:#ffffff;stroke-width:0.34057"
     d="m 673.74061,482.04665 c -0.80011,-0.15925 -1.1796,-0.8218 -2.27718,-3.97576 -0.4669,-1.34167 -0.80703,-1.75228 -1.79835,-2.17096 -1.34169,-0.56666 -2.12547,-0.41731 -6.76935,1.2899 l -2.11471,0.77742 -0.93569,-0.70421 c -0.94639,-0.71227 -1.10589,-1.12543 -1.79959,-4.66161 -0.21182,-1.07975 -0.73774,-2.38446 -1.16872,-2.89936 -0.98797,-1.18037 -10.96776,-6.24341 -14.63063,-7.42256 -3.43072,-1.10442 -4.96191,-1.36395 -14.80528,-2.50942 -8.73039,-1.01596 -12.39428,-1.02459 -19.0719,-0.0449 -6.95297,1.02008 -8.61352,1.55936 -11.47599,3.72697 -0.84521,0.64004 -1.85174,1.16249 -2.23674,1.16101 -1.15445,-0.004 -2.67335,-1.18953 -5.47646,-4.27289 -1.4618,-1.60794 -3.12119,-3.16541 -3.68754,-3.46105 -0.56634,-0.29563 -2.1718,-0.62831 -3.56769,-0.73927 -2.52367,-0.20063 -2.5367,-0.2067 -2.31443,-1.07809 1.39411,-5.46552 0.77864,-9.12495 -1.93914,-11.52973 -1.61011,-1.42467 -3.87473,-2.08082 -8.71789,-2.52591 -4.06286,-0.37338 -6.83509,-0.88165 -8.01643,-1.46975 -1.45536,-0.72452 -3.25353,-2.85862 -3.94673,-4.68403 -0.60726,-1.59914 -0.75508,-2.99229 -0.96105,-9.05798 -0.15039,-4.42865 -0.44937,-8.07427 -0.78232,-9.53904 -0.64746,-2.84848 -2.28837,-5.73737 -5.81626,-10.23975 l -2.60364,-3.32284 0.99814,-0.68829 c 0.54898,-0.37856 2.0019,-1.6931 3.22872,-2.9212 2.7441,-2.74696 4.31023,-5.72614 7.3324,-13.94812 1.20019,-3.26518 2.36163,-5.99575 2.58098,-6.06793 0.21935,-0.0722 1.75236,0.79092 3.4067,1.918 3.72306,2.53648 5.01384,3.01543 6.67138,2.47545 1.91436,-0.62365 2.81262,-2.33185 3.78089,-7.19 0.95166,-4.77486 1.48423,-6.13651 2.71216,-6.93435 1.11463,-0.72423 2.12163,-0.4717 4.95106,1.24157 4.35654,2.63797 5.93551,2.64955 8.4728,0.0621 1.49097,-1.52042 4.15759,-6.22597 4.66865,-8.23836 0.21221,-0.83559 0.3085,-0.87461 1.4766,-0.59845 3.45402,0.81659 7.74775,0.0432 9.42922,-1.69847 0.90275,-0.93504 1.01508,-1.31149 1.19515,-4.00514 0.10931,-1.63521 0.32347,-3.16528 0.47591,-3.40017 0.44943,-0.6925 1.97413,-1.34246 4.85847,-2.0711 1.48872,-0.37608 3.02795,-0.77603 3.42051,-0.88877 0.68218,-0.19593 0.72311,-0.0494 0.92546,3.31247 0.38421,6.38329 1.67032,10.57823 3.94709,12.87433 0.63758,0.643 2.30544,2.01145 3.70635,3.04101 3.18499,2.34072 4.9915,4.04307 5.69046,5.36237 0.34334,0.64808 0.61917,2.3603 0.7516,4.66555 0.19088,3.32282 0.30761,3.80553 1.33289,5.512 1.67283,2.78424 3.49464,4.78675 6.27119,6.89321 1.36875,1.03842 4.52549,3.77828 7.01499,6.08859 8.19402,7.60426 10.66888,9.46999 12.56102,9.46939 1.41268,-4.3e-4 4.17856,-1.5312 6.31775,-3.4965 2.42631,-2.22907 2.76998,-2.92107 3.1225,-6.28722 l 0.26182,-2.5 1.35807,1.09878 c 3.70085,2.99426 9.23965,6.32775 12.14738,7.31083 0.92224,0.3118 0.72042,1.13557 -0.98444,4.01815 -2.60007,4.3962 -2.39834,6.43815 0.77623,7.85702 2.16754,0.96879 5.1009,0.69156 11.15009,-1.05379 8.69488,-2.5087 10.91462,-1.98071 16.50269,3.92537 9.79536,10.35278 10.83468,11.16582 14.64472,11.45614 2.6581,0.20254 3.81066,-0.26226 6.95825,-2.80607 2.9305,-2.36837 4.84873,-3.45456 5.28351,-2.99177 0.36585,0.38942 2.1571,8.59337 2.89106,13.24107 0.40503,2.5648 0.58843,5.68446 0.58076,9.87884 -0.0119,6.5403 -0.39315,8.8388 -1.99158,12.00882 -0.92591,1.83626 -3.06786,3.80837 -4.1319,3.80428 -0.43682,-0.002 -2.08083,-0.80122 -3.65335,-1.77676 -4.34363,-2.69464 -5.08206,-3.02483 -6.77918,-3.03136 -1.30388,-0.005 -1.73582,0.16863 -2.57141,1.03372 l -1.00429,1.03974 -0.0895,5.14113 c -0.10328,5.9349 -0.27759,6.36418 -3.58511,8.82958 -4.17399,3.11125 -8.45064,4.46148 -14.13542,4.46286 -3.63019,9e-4 -3.82033,-0.0356 -4.93466,-0.94753 -2.89102,-2.36581 -3.77821,-2.81683 -5.55436,-2.82365 -2.48446,-0.01 -4.41753,0.85518 -8.78946,3.93184 -4.84142,3.40705 -6.64002,4.182 -8.73728,3.76456 z"
     id="path2669"
     transform="scale(0.26458333)" />
  <path
     style="fill:#ffffff;stroke-width:0.24082"
     d="m 515.85228,565.95375 c -0.0823,-0.21689 0.0871,-1.65213 0.37636,-3.18944 0.91997,-4.88919 0.68401,-7.33239 -0.88678,-9.18184 -1.76488,-2.07799 -4.2046,-2.79625 -9.44627,-2.78101 -4.13446,0.012 -5.66985,0.2693 -11.80785,1.9786 -5.8926,1.64096 -9.1738,1.51562 -11.31317,-0.43216 -1.24463,-1.13317 -1.82477,-2.20809 -3.44354,-6.38037 -1.53013,-3.94385 -2.59786,-5.58045 -4.19495,-6.42999 -1.2487,-0.66421 -2.8426,-0.74168 -3.91866,-0.19045 -0.40917,0.20959 -1.63926,1.05879 -2.73355,1.88709 -2.33735,1.76922 -2.83863,1.95776 -6.02847,2.26735 -3.12914,0.30371 -3.62217,0.41339 -5.04003,1.12119 -1.6127,0.80507 -3.05451,2.33815 -5.57704,5.93008 -1.1727,1.66987 -2.63349,3.47871 -3.24619,4.01965 -1.31665,1.16243 -3.32418,2.1358 -4.70566,2.28158 -2.56995,0.27118 -4.46002,-2.99727 -4.44842,-7.69256 0.007,-2.70268 0.5072,-4.26855 2.67973,-8.38361 3.55829,-6.73982 4.28166,-8.87439 4.07302,-12.01893 -0.15316,-2.30848 -0.75157,-4.02745 -3.04324,-8.74198 -2.08398,-4.28727 -2.7394,-6.51397 -2.53953,-8.62775 0.20767,-2.19631 1.27129,-3.86212 5.16289,-8.08593 4.1404,-4.49386 5.00917,-5.95038 5.15554,-8.6434 0.16242,-2.98834 -1.46213,-7.21124 -4.65166,-12.09168 -1.34495,-2.05796 -1.45555,-2.32477 -1.2527,-3.02194 0.30949,-1.06369 0.27582,-3.09122 -0.11678,-7.03052 -0.43641,-4.37892 -0.41807,-8.73023 0.0449,-10.66079 1.04639,-4.36303 3.393,-6.41771 9.90517,-8.67292 3.76994,-1.30556 7.80104,-3.26908 9.78884,-4.76809 3.05932,-2.30704 6.33116,-6.18965 8.05009,-9.55282 1.08086,-2.11477 1.86424,-4.78194 2.09617,-7.13687 0.3501,-3.55465 0.85572,-4.3068 6.97149,-10.37045 1.60168,-1.58802 3.35468,-3.56627 3.89556,-4.3961 0.97148,-1.49048 1.70442,-3.84052 1.36869,-4.38845 -0.25086,-0.4094 0.37542,-0.68975 1.54002,-0.6894 1.16648,3.5e-4 3.99863,0.89583 5.88899,1.862 3.307,1.69022 7.244,5.05394 8.56746,7.31993 1.70388,2.91733 2.00943,3.26341 3.59666,4.07387 3.11012,1.58807 7.2685,1.68372 10.23534,0.23544 2.24988,-1.0983 3.94717,-2.79026 7.32864,-7.30567 1.52742,-2.03962 3.29939,-4.24609 3.9377,-4.90325 1.0557,-1.08688 1.23238,-1.18044 1.95541,-1.03548 0.43717,0.0876 1.65977,0.68885 2.71689,1.33601 4.06569,2.48894 5.35587,2.86187 7.00966,2.02617 1.98573,-1.00345 3.32598,-3.04482 4.46592,-6.8022 0.29569,-0.9746 0.80777,-2.44893 1.13796,-3.27629 l 0.60035,-1.50429 1.43143,1.75292 c 2.16355,2.64947 4.6044,6.1663 5.4163,7.80393 1.32591,2.67439 1.49407,3.76315 1.691,10.94871 0.20039,7.31135 0.51056,9.57329 1.63554,11.92694 1.33787,2.79907 3.16011,4.30152 6.15078,5.07137 0.78001,0.20079 3.20563,0.53814 5.39027,0.74967 6.14685,0.59518 7.76071,1.04883 9.38338,2.63762 1.17891,1.15429 1.74231,2.63888 1.85632,4.89151 0.12617,2.49296 -0.38219,4.51125 -2.64142,10.48703 -1.89689,5.01736 -2.32523,6.59315 -2.67314,9.83422 -0.44453,4.1411 -1.52673,5.38036 -6.17979,7.07665 -5.27151,1.92174 -7.36945,3.17373 -10.37913,6.19392 -3.23854,3.24987 -5.60426,7.08295 -7.96657,12.90793 -0.73137,1.80342 -1.68012,4.40064 -2.10833,5.77161 -1.02332,3.27629 -1.63208,4.40233 -3.18499,5.89129 -1.6896,1.62002 -3.08483,2.47143 -8.16639,4.98334 -4.86675,2.40574 -7.80545,4.25354 -9.0609,5.69736 -2.58468,2.97245 -3.05552,6.42611 -1.4606,10.71336 0.79196,2.12881 1.79751,3.90982 4.7003,8.32503 2.53064,3.84916 4.01479,6.65792 4.0112,7.5912 -0.002,0.55223 -0.005,0.5527 -2.59856,0.38519 -2.1255,-0.13729 -2.73101,-0.0988 -3.33839,0.21236 -1.02642,0.52579 -1.4012,1.53763 -1.19983,3.23933 0.37064,3.13213 0.37806,3.55937 0.0718,4.13261 -0.45098,0.84402 -1.57645,1.41462 -3.60446,1.8274 -0.97452,0.19836 -2.0072,0.51252 -2.29484,0.69814 -0.74894,0.48331 -1.4263,2.50495 -1.77071,5.28486 -0.37509,3.02765 -0.62708,3.98627 -1.2565,4.78015 -0.57936,0.73074 -1.7675,0.86798 -2.00874,0.23202 z"
     id="path2708"
     transform="scale(0.26458333)" />
  <path
     style="fill:#ffffff;stroke-width:0.24082"
     d="m 633.98435,582.54562 c -0.51384,-0.34945 -1.36619,-1.03378 -1.89413,-1.52072 -2.39785,-2.21165 -4.30445,-3.07888 -5.95535,-2.70885 -0.50011,0.1121 -1.83574,0.87149 -2.96807,1.68755 -1.13232,0.81606 -2.43256,1.58541 -2.88942,1.70967 -1.03889,0.28256 -3.31853,-0.11216 -5.15981,-0.89341 -3.2716,-1.38814 -9.3024,-4.34104 -12.35808,-6.05098 -1.83638,-1.02763 -4.21247,-2.31186 -5.28019,-2.85385 -1.06771,-0.54199 -3.11354,-1.80263 -4.54628,-2.80142 -3.95182,-2.7549 -6.02231,-3.31899 -8.25461,-2.24892 -1.83339,0.87885 -2.366,2.21638 -2.89153,7.26145 -0.54288,5.21155 -0.92351,6.24497 -2.54481,6.90924 -1.78823,0.73267 -3.38926,-0.32179 -6.62408,-4.36274 -2.33736,-2.91984 -4.00475,-4.58913 -5.21769,-5.22365 -2.02868,-1.06126 -5.14097,-0.92045 -8.84456,0.40014 -5.68637,2.02758 -6.86918,2.38013 -8.39494,2.50214 -2.04099,0.16321 -3.06729,-0.25004 -5.45463,-2.19634 -2.09517,-1.70811 -3.34632,-2.33789 -4.6546,-2.34291 -1.24361,-0.005 -2.05998,0.38648 -4.26418,2.04368 -0.9351,0.70305 -2.02148,1.40152 -2.41418,1.55214 -1.24537,0.47768 -7.19442,0.55494 -9.42141,0.12236 -3.6469,-0.7084 -6.57746,-2.63249 -6.56429,-4.30985 0.01,-1.28004 0.23618,-1.82163 0.88222,-2.11299 0.92006,-0.41495 1.55044,-2.16762 2.05715,-5.71955 0.65158,-4.56745 0.81696,-4.80581 3.69733,-5.32893 1.89116,-0.34347 3.36036,-1.22587 3.89358,-2.33847 0.42799,-0.89305 0.42919,-2.33689 0.004,-5.05913 -0.13042,-0.83539 -0.0686,-1.08237 0.38307,-1.53059 0.51296,-0.50904 0.65786,-0.52587 3.04584,-0.35388 2.1485,0.15474 2.59716,0.12216 3.13564,-0.22772 0.57879,-0.37607 0.61849,-0.508 0.50292,-1.67152 -0.16678,-1.67911 -1.20658,-3.70047 -4.4737,-8.69678 -1.4761,-2.25736 -2.98866,-4.71243 -3.36125,-5.45572 -2.98514,-5.95507 -2.00266,-10.15625 3.16825,-13.5479 0.87691,-0.57518 3.38588,-1.93063 5.57549,-3.01212 5.36754,-2.65113 6.97456,-3.60612 8.6345,-5.13112 1.81736,-1.66963 2.40065,-2.77137 4.01582,-7.58524 2.87981,-8.58302 5.83917,-13.82642 10.0645,-17.83232 2.42467,-2.29877 4.53932,-3.53444 8.80346,-5.14422 1.87987,-0.70968 3.76443,-1.50262 4.1879,-1.7621 0.94022,-0.57611 2.15194,-1.91416 2.38244,-2.63084 0.14274,-0.44381 0.36947,-0.14502 1.40834,1.85596 2.73997,5.2775 6.72906,11.61675 9.55255,15.18042 0.84209,1.06285 1.68109,2.20395 1.86444,2.53579 0.23448,0.42436 0.36698,1.88932 0.4467,4.93855 0.15765,6.02995 0.38857,6.40991 5.51181,9.06942 2.59504,1.34711 3.65009,2.29428 3.64633,3.27349 -0.003,0.84613 -0.52596,1.21095 -2.20498,1.53895 -2.73962,0.5352 -3.28022,0.74959 -4.13427,1.63957 -2.38764,2.4881 -4.61278,8.91768 -4.61723,13.34156 -0.003,3.25603 1.26659,6.92503 2.97279,8.58924 l 0.86756,0.84621 3.89944,0.0217 c 3.60387,0.02 4.04874,0.0724 5.8694,0.6908 1.08349,0.36801 3.67983,1.54607 5.76965,2.61791 l 3.79968,1.9488 1.80642,-0.0689 c 1.68228,-0.0641 2.07171,-0.19398 5.66657,-1.88948 4.37958,-2.06562 5.77158,-2.4618 8.04676,-2.29022 1.79098,0.13506 3.28938,0.72455 5.45657,2.14669 2.26449,1.48598 2.68692,1.40044 6.4565,-1.30728 1.34778,-0.96813 1.9505,-1.0259 3.83912,-0.36799 2.70923,0.94378 5.15845,2.87608 6.05928,4.78045 1.0092,2.13349 1.32884,27.82836 0.38318,30.80327 -0.50697,1.59485 -1.45859,2.5363 -4.92541,4.87278 -1.55905,1.05074 -3.48227,2.45644 -4.27381,3.12378 -0.79155,0.66734 -1.61839,1.21266 -1.83742,1.21181 -0.21904,-8.4e-4 -0.81866,-0.28744 -1.33249,-0.6369 z"
     id="path2747"
     transform="scale(0.26458333)" />
  <path
     style="fill:#ffffff;stroke-width:0.24082"
     d="m 740.04114,574.28173 c -2.42409,-0.52972 -3.7889,-1.10968 -7.12963,-3.02967 -5.32405,-3.05985 -21.15533,-13.94788 -21.72925,-14.94438 -0.1294,-0.22468 -0.28763,-1.73443 -0.35162,-3.355 -0.10836,-2.74429 -0.15741,-2.98594 -0.71474,-3.52139 -1.10579,-1.06239 -5.73986,-2.57559 -10.70166,-3.49449 -3.72605,-0.69005 -15.39774,-0.67286 -23.11898,0.034 -7.36328,0.67413 -7.42557,0.69905 -11.09037,4.43614 -1.46517,1.49407 -3.00575,2.94501 -3.42352,3.2243 -1.53782,1.02808 -3.45481,1.31435 -8.55489,1.27752 -2.60253,-0.0188 -4.83892,-0.1009 -4.96977,-0.18247 -0.13577,-0.0846 -0.29988,-2.29479 -0.38226,-5.1481 -0.09,-3.11496 -0.27308,-5.47027 -0.4858,-6.24777 -0.64311,-2.35066 -3.63509,-4.96165 -6.99477,-6.10411 -2.73889,-0.93135 -3.83095,-0.66784 -6.67634,1.61101 -1.41154,1.13049 -1.91894,1.17519 -3.15794,0.27817 -0.58098,-0.42062 -1.79065,-1.11205 -2.68815,-1.53651 -1.3681,-0.64702 -1.98612,-0.78866 -3.82421,-0.87644 -2.79736,-0.13361 -3.96705,0.19097 -8.62553,2.39347 -5.1278,2.4244 -5.0951,2.42462 -10.0651,-0.0669 -5.96506,-2.9903 -6.97948,-3.28584 -11.5031,-3.35133 -2.05289,-0.0297 -3.86683,-0.0673 -4.03098,-0.0836 -0.45391,-0.045 -1.90129,-2.38454 -2.4817,-4.0115 -0.4125,-1.15631 -0.51651,-2.00314 -0.51784,-4.21636 -0.002,-3.42916 0.58334,-5.8184 2.26956,-9.2629 1.74496,-3.5645 1.92793,-3.70886 5.61357,-4.42925 2.24881,-0.43954 3.26671,-1.58067 2.94975,-3.30683 -0.22836,-1.24361 -1.57235,-2.44334 -4.35152,-3.88443 -4.5734,-2.37145 -4.68188,-2.55886 -4.84535,-8.3701 -0.13927,-4.95092 -0.10611,-4.84554 -2.4478,-7.78009 -2.85799,-3.58158 -6.48498,-9.35186 -9.79925,-15.58991 l -1.51896,-2.85895 0.19441,-1.93344 c 0.24894,-2.47572 0.88654,-4.77012 2.49102,-8.96384 l 1.28692,-3.36371 1.06199,-0.18034 c 1.31554,-0.2234 3.97227,0.13066 5.12471,0.68297 0.47498,0.22763 2.17956,1.82383 3.78797,3.54711 2.97843,3.19115 3.97904,3.93509 5.66415,4.2112 1.11501,0.18269 1.91287,-0.16556 3.97336,-1.73431 0.76103,-0.57941 1.76908,-1.21276 2.24013,-1.40745 2.23043,-0.92188 8.86325,-2.00831 15.00115,-2.45712 2.83464,-0.20728 3.90829,-0.18541 6.14047,0.12507 1.48784,0.20694 5.34115,0.66452 8.56292,1.01683 6.60237,0.72199 8.28222,1.02993 11.71149,2.14685 2.57981,0.84025 12.39566,5.65267 13.58235,6.65902 0.75889,0.64357 1.16446,1.78542 1.6683,4.69702 0.32724,1.89105 0.89676,2.92915 1.96864,3.58835 1.20548,0.74136 2.52864,0.62186 5.39862,-0.48754 4.55605,-1.76117 5.04839,-1.60329 6.20763,1.99067 0.94642,2.93416 1.32883,3.2413 4.04872,3.25175 1.70602,0.007 2.1786,-0.0915 3.53728,-0.73413 0.8625,-0.40793 2.81789,-1.63978 4.3453,-2.73744 4.94108,-3.55084 7.20801,-4.58304 9.21916,-4.19774 0.48675,0.0933 1.74274,0.85676 3.03871,1.8472 1.21498,0.92854 2.50339,1.76098 2.86314,1.84988 0.40055,0.099 1.95588,1.48418 4.01248,3.57358 4.93861,5.01738 8.47421,7.7434 11.58838,8.93488 1.20201,0.4599 1.84459,0.52745 4.99193,0.52483 3.20609,-0.003 4.10022,-0.10284 7.95053,-0.89076 5.67142,-1.16058 8.80781,-1.33742 11.11564,-0.62673 1.97285,0.60752 3.46439,1.78887 4.01473,3.17978 0.21752,0.54975 0.4838,2.37125 0.61705,4.22088 0.28855,4.00551 0.74724,5.38576 2.28786,6.88453 2.4263,2.3604 2.95818,3.69434 2.11617,5.30738 -0.20272,0.38836 -1.37208,1.52827 -2.59856,2.53313 -1.22649,1.00485 -2.82106,2.53077 -3.5435,3.39093 l -1.31353,1.56392 -2.66537,-0.1736 c -2.50832,-0.16336 -2.72935,-0.14014 -3.75125,0.39424 -2.2268,1.16444 -4.35262,4.64229 -4.36221,7.13659 -0.0117,3.03972 1.43525,4.23271 6.75611,5.57035 3.40363,0.85566 4.76029,1.45082 5.60013,2.45674 0.8234,0.98623 0.97476,2.12766 0.63558,4.79302 -0.58295,4.58088 -0.32899,6.06735 1.32982,7.78368 1.26431,1.30816 2.34853,1.88117 6.29701,3.32799 4.05122,1.48446 5.23466,2.12171 6.32551,3.40607 1.01105,1.19042 2.00251,4.07456 2.34231,6.8137 0.45044,3.63116 -0.44688,7.79869 -2.2338,10.37463 -2.66936,3.84803 -9.31528,5.80534 -15.28341,4.50116 z"
     id="path2898"
     transform="scale(0.26458333)" />
</svg>
